<?xml version="1.0" encoding="UTF-8" standalone="no"?>
<!-- Created with Inkscape (http://www.inkscape.org/) -->

<svg
   xmlns:dc="http://purl.org/dc/elements/1.1/"
   xmlns:cc="http://creativecommons.org/ns#"
   xmlns:rdf="http://www.w3.org/1999/02/22-rdf-syntax-ns#"
   xmlns:svg="http://www.w3.org/2000/svg"
   xmlns="http://www.w3.org/2000/svg"
   xmlns:xlink="http://www.w3.org/1999/xlink"
   xmlns:sodipodi="http://sodipodi.sourceforge.net/DTD/sodipodi-0.dtd"
   xmlns:inkscape="http://www.inkscape.org/namespaces/inkscape"
   width="137.51357mm"
   height="264.10596mm"
   viewBox="0 0 137.51357 264.10596"
   version="1.1"
   id="svg8"
   inkscape:version="0.92.3 (2405546, 2018-03-11)"
   sodipodi:docname="gastronomia.svg">
  <title
     id="title3755">martin m.</title>
  <defs
     id="defs2">
    <linearGradient
       inkscape:collect="always"
       id="linearGradient16">
      <stop
         style="stop-color:#ff5555;stop-opacity:1;"
         offset="0"
         id="stop12" />
      <stop
         style="stop-color:#ff5555;stop-opacity:0;"
         offset="1"
         id="stop14" />
    </linearGradient>
    <linearGradient
       inkscape:collect="always"
       xlink:href="#linearGradient16"
       id="linearGradient18"
       x1="107.34524"
       y1="125.39881"
       x2="85.422623"
       y2="91.380951"
       gradientUnits="userSpaceOnUse" />
  </defs>
  <sodipodi:namedview
     id="base"
     pagecolor="#ffffff"
     bordercolor="#666666"
     borderopacity="1.0"
     inkscape:pageopacity="0.0"
     inkscape:pageshadow="2"
     inkscape:zoom="0.35"
     inkscape:cx="329.94597"
     inkscape:cy="539.43749"
     inkscape:document-units="mm"
     inkscape:current-layer="layer1"
     showgrid="false"
     inkscape:window-width="1366"
     inkscape:window-height="705"
     inkscape:window-x="-8"
     inkscape:window-y="-8"
     inkscape:window-maximized="1" />
  <metadata
     id="metadata5">
    <rdf:RDF>
      <cc:Work
         rdf:about="">
        <dc:format>image/svg+xml</dc:format>
        <dc:type
           rdf:resource="http://purl.org/dc/dcmitype/StillImage" />
        <dc:title>martin m.</dc:title>
      </cc:Work>
    </rdf:RDF>
  </metadata>
  <g
     inkscape:label="Capa 1"
     inkscape:groupmode="layer"
     id="layer1"
     transform="translate(-41.213701,-4.7749756)">
    <path
       style="opacity:1;fill:url(#linearGradient18);fill-opacity:1;stroke-width:0.26458332"
       id="path10"
       sodipodi:type="arc"
       sodipodi:cx="107.72321"
       sodipodi:cy="127.28869"
       sodipodi:rx="59.342262"
       sodipodi:ry="65.389877"
       sodipodi:start="6.238662"
       sodipodi:end="6.0244053"
       sodipodi:open="true"
       d="M 167.00667,124.37828 A 59.342262,65.389877 0 0 1 113.53462,192.36426 59.342262,65.389877 0 0 1 49.062027,137.16721 59.342262,65.389877 0 0 1 95.630538,63.270885 59.342262,65.389877 0 0 1 165.08955,110.55533" />
    <path
       style="opacity:1;fill:#483737;fill-opacity:1;stroke-width:0.26458332"
       id="path22"
       d="m 50.895302,75.457808 c 0.169847,0.565127 0.286211,1.141421 0.474414,1.701202 0.265501,0.804638 0.499438,1.619425 0.757341,2.426486 0.33089,0.979332 0.609674,1.974676 0.914331,2.962188 0.329869,1.138296 0.660747,2.275448 1.009684,3.408079 0.353566,1.228379 0.721678,2.45227 1.079596,3.679394 0.352086,1.246952 0.723595,2.488094 1.106995,3.725714 0.372846,1.259925 0.763159,2.51442 1.121138,3.778726 0.357896,1.274355 0.737496,2.542038 1.077184,3.821603 0.313058,1.2837 0.666967,2.55666 0.988706,3.83819 0.323628,1.29586 0.595924,2.60355 0.851678,3.91423 0.259138,1.3406 0.476144,2.68873 0.680349,4.03862 0.206309,1.37632 0.379471,2.75723 0.542518,4.13923 0.164232,1.4044 0.302395,2.81163 0.432554,4.21954 0.130752,1.42656 0.240977,2.85487 0.344855,4.28361 0.104114,1.44409 0.192035,2.88927 0.274921,4.33471 0.08291,1.45798 0.153035,2.91664 0.219157,4.37547 0.06605,1.46901 0.12196,2.93844 0.174702,4.40797 0.05998,1.47914 0.101676,2.95801 0.100258,4.43833 -0.01349,1.48601 -0.0019,2.97252 -0.0466,4.458 -0.06188,1.48729 -0.09607,2.97601 -0.185727,4.46195 -0.08248,1.44007 -0.218205,2.87675 -0.388639,4.30892 -0.161888,1.48604 -0.369001,2.96461 -0.611719,4.43935 -0.246303,1.50674 -0.47453,3.01589 -0.73633,4.52002 -0.240538,1.45096 -0.508804,2.89741 -0.808834,4.33726 -0.299016,1.44547 -0.58991,2.89241 -0.919184,4.33139 -0.36831,1.54405 -0.789466,3.07456 -1.178507,4.61341 -0.373602,1.50406 -0.856279,2.97579 -1.323731,4.45218 -0.463304,1.42116 -0.976871,2.82487 -1.530583,4.21312 -0.541383,1.3883 -1.135666,2.75447 -1.732796,4.11935 -0.610148,1.33116 -1.234821,2.65598 -1.878354,3.97135 -0.643509,1.28353 -1.306224,2.55699 -1.973408,3.82829 -0.668827,1.23393 -1.353187,2.45909 -2.04008,3.68298 -0.719119,1.24447 -1.476904,2.46589 -2.231663,3.68889 -0.399888,0.62123 -0.797523,1.24387 -1.198911,1.86414 0,0 -3.046916,-4.28526 -3.046916,-4.28526 v 0 c 0.398529,-0.61795 0.795909,-1.23664 1.189768,-1.85759 0.749655,-1.21884 1.503887,-2.43524 2.213277,-3.6782 0.685826,-1.2192 1.364808,-2.44218 2.028491,-3.67362 0.665835,-1.26655 1.322724,-2.53774 1.960412,-3.81876 0.63537,-1.31208 1.264632,-2.62747 1.862172,-3.95729 0.594913,-1.36005 1.177142,-2.72558 1.717222,-4.10854 0.541028,-1.38216 1.049137,-2.77687 1.501908,-4.19069 0.466293,-1.46783 0.931436,-2.93606 1.300353,-4.43231 0.391901,-1.53462 0.810834,-3.06249 1.166153,-4.60624 0.31981,-1.4386 0.612183,-2.88289 0.910059,-4.32615 0.289351,-1.43774 0.557662,-2.87956 0.796681,-4.32657 0.258509,-1.50312 0.482846,-3.01161 0.732552,-4.51621 0.236122,-1.47002 0.42554,-2.94583 0.590992,-4.42549 0.156567,-1.4267 0.291105,-2.85604 0.364826,-4.28971 0.07592,-1.48306 0.122592,-2.96755 0.173479,-4.45164 0.0302,-1.48283 0.0295,-2.96614 0.03538,-4.44923 -0.0067,-1.47648 -0.05914,-2.95171 -0.114496,-4.42709 -0.05395,-1.46854 -0.111154,-2.93699 -0.178739,-4.40498 -0.06765,-1.45757 -0.139406,-2.91497 -0.224287,-4.37166 -0.08483,-1.44383 -0.174829,-2.8874 -0.281456,-4.32982 -0.10636,-1.42668 -0.219234,-2.85291 -0.353216,-4.2773 -0.133332,-1.40526 -0.274892,-2.8098 -0.443294,-4.21136 -0.167124,-1.37858 -0.344657,-2.756 -0.556379,-4.12855 -0.209468,-1.34544 -0.432139,-2.68901 -0.698309,-4.02458 -0.262586,-1.30516 -0.542605,-2.60701 -0.873472,-3.89683 -0.328147,-1.278593 -0.669729,-2.553705 -0.994362,-3.833201 -0.348126,-1.275767 -0.72838,-2.54218 -1.083607,-3.81595 -0.365871,-1.260663 -0.751538,-2.515481 -1.129821,-3.77245 -0.381418,-1.239338 -0.741775,-2.484985 -1.101762,-3.730694 -0.362556,-1.224926 -0.716108,-2.452444 -1.084908,-3.675486 -0.347959,-1.134086 -0.665414,-2.276872 -1.010526,-3.411805 -0.296336,-0.990909 -0.603747,-1.978003 -0.92012,-2.962698 -0.247779,-0.812371 -0.507907,-1.62066 -0.759031,-2.431973 -0.159986,-0.571423 -0.297061,-1.149056 -0.463262,-1.718852 0,0 3.408918,4.034887 3.408918,4.034887 z"
       inkscape:connector-curvature="0" />
    <path
       style="opacity:1;fill:#483737;fill-opacity:1;stroke-width:0.26458332"
       id="path24"
       d="m 59.0166,130.63408 c 0.286126,-0.46534 0.516565,-0.96139 0.786477,-1.43587 0.342543,-0.6203 0.712713,-1.22615 1.088882,-1.82672 0.415576,-0.68077 0.804182,-1.37742 1.212244,-2.06258 0.442315,-0.76009 0.908942,-1.50562 1.341871,-2.2713 0.499505,-0.87225 1.014267,-1.73546 1.536539,-2.59426 0.552151,-0.9311 1.134697,-1.84345 1.674797,-2.78177 0.585528,-0.95494 1.11589,-1.94186 1.654008,-2.92385 0.545775,-1.03636 1.107006,-2.06471 1.616041,-3.11979 0.578627,-1.19584 1.084487,-2.42493 1.594662,-3.651 0.569735,-1.28702 1.065532,-2.60441 1.596027,-3.90758 0.550135,-1.37494 1.08168,-2.75759 1.59621,-4.146265 0.544317,-1.391216 1.089435,-2.781821 1.597401,-4.186796 0.555331,-1.455457 1.02208,-2.941968 1.548474,-4.407728 0.542687,-1.477449 1.032415,-2.973112 1.492951,-4.477927 0.425445,-1.478172 0.84891,-2.956902 1.268976,-4.436663 0.417341,-1.437556 0.744141,-2.89864 1.116423,-4.34784 0.371075,-1.425488 0.709771,-2.859066 1.056378,-4.290623 0.340362,-1.482215 0.70721,-2.958063 1.048036,-4.44018 0.348286,-1.503653 0.633769,-3.020568 0.90533,-4.539612 0.280799,-1.599541 0.506576,-3.207896 0.722942,-4.817184 0.217866,-1.627992 0.404421,-3.259852 0.577225,-4.893159 0.176493,-1.669841 0.321615,-3.342727 0.4601,-5.016074 0.140769,-1.694027 0.258416,-3.389786 0.366816,-5.086149 0.11177,-1.758116 0.205261,-3.517313 0.292542,-5.276792 0.07958,-1.77737 0.178705,-3.554216 0.216471,-5.333084 0.02647,-1.731513 0.05679,-3.462713 -0.0088,-5.193517 -0.05484,-1.860306 -0.235995,-3.713468 -0.43784,-5.562701 C 86.72138,21.690273 86.447523,19.780465 86.200998,17.867358 85.974604,15.960495 85.653985,14.066664 85.363351,12.168942 85.066197,10.30209 84.70194,8.4470935 84.364305,6.5873629 84.149813,5.3756879 84.260893,5.9798124 84.031139,4.7749756 c 0,0 3.358028,4.0353934 3.358028,4.0353934 v 0 c 0.224089,1.20783 0.113901,0.6031894 0.330549,1.813925 0.340345,1.861209 0.699313,3.719329 0.986817,5.589742 0.292513,1.899832 0.603538,3.797364 0.828447,5.706817 0.248685,1.914667 0.521304,3.826603 0.726885,5.746549 0.192175,1.859058 0.365302,3.721169 0.410834,5.590646 0.04671,1.737169 0.01765,3.474728 -0.01505,5.212008 -0.05169,1.781141 -0.143195,3.560818 -0.227086,5.340678 -0.08873,1.76135 -0.184005,3.522396 -0.297818,5.282327 -0.110447,1.698763 -0.230486,3.396893 -0.373885,5.093237 -0.141155,1.676077 -0.28929,3.351649 -0.469236,5.024083 -0.176392,1.63653 -0.366956,3.271541 -0.588785,4.90261 -0.220909,1.614713 -0.451874,3.228396 -0.739918,4.832747 -0.277524,1.524746 -0.570677,3.04692 -0.925161,4.555966 -0.345053,1.482617 -0.707419,2.961124 -1.052102,4.443828 -0.347459,1.433055 -0.687253,2.868044 -1.060617,4.294664 -0.365445,1.454909 -0.709027,2.915705 -1.128964,4.356377 -0.42378,1.481551 -0.840454,2.965196 -1.278741,4.442489 -0.468689,1.508745 -0.967976,3.007546 -1.511303,4.491228 -0.519234,1.469541 -0.995823,2.954087 -1.550368,4.41111 -0.514017,1.40396 -1.062435,2.7946 -1.600269,4.18954 -0.520499,1.39104 -1.05169,2.77835 -1.607606,4.15564 -0.525703,1.3073 -1.033571,2.62189 -1.599395,3.91272 -0.516557,1.23364 -1.028793,2.47014 -1.617629,3.67164 -0.521488,1.05771 -1.080135,2.09647 -1.635357,3.13677 -0.542224,0.98404 -1.077799,1.97203 -1.663708,2.93113 -0.547614,0.93757 -1.128255,1.85503 -1.682036,2.78892 -0.51716,0.85744 -1.029808,1.71758 -1.523854,2.5886 -0.440338,0.76409 -0.903267,1.51481 -1.346433,2.27723 -0.403188,0.69226 -0.802717,1.38674 -1.220317,2.07048 -0.365072,0.59912 -0.736187,1.19529 -1.066678,1.81446 -0.255791,0.47523 -0.503317,0.9549 -0.765828,1.42648 0,0 -3.107963,-4.27093 -3.107963,-4.27093 z"
       inkscape:connector-curvature="0" />
    <path
       style="opacity:1;fill:#483737;fill-opacity:1;stroke-width:0.26458332"
       id="path26"
       d="m 59.48422,128.44281 c 0.475609,0.32411 0.901117,0.71718 1.31046,1.12006 0.502946,0.53118 0.964102,1.09841 1.383027,1.69763 1.427049,2.13954 2.931686,4.23662 4.104979,6.52778 0.454763,0.89345 0.871066,1.80354 1.2485,2.73217 0.408241,0.9914 0.787442,1.99403 1.177723,2.99259 0.390674,1.06224 0.813933,2.1116 1.194957,3.17746 0.440063,1.06224 0.786609,2.15891 1.181719,3.23759 0.388924,1.09211 0.747035,2.19425 1.170096,3.27392 0.419555,1.09835 0.84832,2.19281 1.239226,3.30182 0.430411,1.11748 0.827392,2.24703 1.242653,3.37012 0.408556,1.15574 0.822605,2.30934 1.201885,3.47514 0.432419,1.24616 0.815967,2.50827 1.240211,3.75719 0.46219,1.31119 0.828619,2.65264 1.24415,3.97849 0.439253,1.33348 0.840872,2.67844 1.256509,4.01933 0.436766,1.39191 0.820489,2.79932 1.180923,4.21265 0.393594,1.41823 0.751747,2.84565 1.086434,4.27881 0.325112,1.41038 0.679559,2.81356 0.997498,4.22574 0.301503,1.5176 0.650476,3.02484 0.978154,4.53686 0.35532,1.6069 0.635773,3.22875 0.957313,4.84236 0.324715,1.59288 0.618236,3.19175 0.894204,4.79371 0.262112,1.54762 0.564145,3.0881 0.83434,4.63441 0.319344,1.6242 0.569018,3.26069 0.852001,4.89128 0.28935,1.72579 0.612777,3.44549 0.914185,5.16918 0.314616,1.79598 0.567873,3.60138 0.80345,5.40913 0.245208,1.89528 0.450265,3.79539 0.64403,5.69652 0.182954,1.88238 0.35374,3.76558 0.552381,5.64638 0.205941,1.85015 0.362437,3.70542 0.567145,5.55562 0.188487,1.79758 0.414449,3.59028 0.645755,5.38272 0.224806,1.72919 0.425003,3.46141 0.614307,5.1948 0.176192,1.68565 0.336656,3.37249 0.530548,5.05621 0.209804,1.78974 0.372454,3.58445 0.528556,5.37951 0.204541,1.96583 0.370453,3.93551 0.576696,5.9011 0.106947,0.9898 0.212471,1.97977 0.317058,2.96984 0,0 -3.323439,-4.05987 -3.323439,-4.05987 v 0 c -0.104939,-0.99012 -0.211108,-1.98009 -0.315304,-2.97028 -0.197694,-1.96875 -0.377912,-3.93928 -0.572709,-5.90833 -0.159409,-1.79355 -0.330039,-3.58616 -0.541814,-5.37441 -0.189635,-1.68422 -0.344225,-3.37194 -0.528449,-5.05676 -0.192048,-1.73097 -0.3955,-3.46065 -0.620956,-5.18762 -0.230651,-1.79408 -0.446204,-3.58978 -0.63649,-5.38865 -0.193974,-1.8513 -0.362484,-3.70523 -0.565372,-5.55565 -0.196469,-1.88093 -0.360061,-3.76491 -0.550942,-5.64641 -0.197006,-1.89829 -0.406281,-3.79545 -0.656175,-5.68761 -0.240797,-1.80398 -0.504253,-3.60488 -0.822653,-5.39702 -0.30467,-1.72373 -0.624004,-3.44486 -0.913196,-5.1713 -0.277135,-1.63237 -0.545449,-3.26625 -0.856215,-4.89272 -0.274595,-1.54522 -0.574069,-3.08596 -0.832512,-4.63403 -0.280799,-1.59908 -0.580845,-3.19459 -0.902581,-4.78598 -0.312131,-1.61369 -0.608663,-3.23064 -0.965716,-4.83529 -0.331925,-1.51171 -0.666726,-3.02266 -0.984768,-4.53736 -0.324401,-1.40963 -0.677815,-2.81225 -1.00031,-4.22232 -0.342014,-1.4299 -0.711245,-2.85274 -1.094971,-4.27202 -0.368456,-1.40797 -0.762362,-2.80905 -1.199398,-4.19745 -0.409697,-1.34317 -0.834856,-2.68115 -1.257694,-4.0202 -0.402506,-1.32831 -0.797418,-2.65912 -1.254155,-3.97023 -0.414967,-1.25312 -0.812321,-2.51202 -1.240178,-3.76086 -0.389097,-1.16036 -0.800092,-2.31331 -1.216734,-3.46404 -0.415481,-1.12353 -0.815163,-2.25282 -1.238526,-3.37346 -0.402108,-1.10387 -0.831405,-2.19745 -1.247841,-3.29596 -0.402322,-1.0883 -0.768273,-2.18918 -1.162383,-3.28043 -0.381066,-1.0838 -0.767461,-2.16531 -1.183542,-3.23632 -0.392234,-1.06043 -0.806744,-2.11247 -1.20386,-3.17108 -0.383727,-0.99994 -0.782029,-1.99384 -1.188966,-2.98457 -0.393544,-0.91749 -0.821324,-1.81934 -1.286245,-2.70301 -2.463088,-4.52286 3.58023,5.50563 1.535665,2.23723 -0.38428,-0.61569 -0.817242,-1.19004 -1.298048,-1.73379 -0.371875,-0.42044 -0.78346,-0.79778 -1.210056,-1.16227 0,0 -2.33454,-4.73805 -2.33454,-4.73805 z"
       inkscape:connector-curvature="0" />
    <path
       style="opacity:1;fill:#483737;fill-opacity:1;stroke-width:0.26458332"
       id="path28"
       d="m 84.104341,111.76527 c 0.06086,0.56349 0.09635,1.12947 0.131824,1.69502 0.04685,0.76892 0.08045,1.53855 0.111802,2.30823 0.03669,0.91981 0.06449,1.83995 0.09043,2.76012 0.02884,1.03993 0.05145,2.08001 0.07257,3.12013 0.02275,1.1357 0.04099,2.27148 0.05807,3.40728 0.01799,1.21204 0.03265,2.42413 0.04639,3.63623 0.01426,1.2729 0.02601,2.54582 0.03704,3.81875 0.01132,1.32141 0.02072,2.64283 0.02955,3.96426 0.0016,1.35677 0.03387,2.71368 0.0062,4.07026 -0.03719,1.34599 -0.08172,2.69175 -0.121375,4.03767 -0.02765,1.37889 -0.09701,2.75691 -0.211021,4.13133 -0.126291,1.40193 -0.247497,2.80429 -0.359243,4.20746 -0.111194,1.42763 -0.270926,2.85106 -0.408374,4.27637 -0.144005,1.446 -0.30335,2.89154 -0.495663,4.33203 -0.190836,1.46995 -0.453969,2.9295 -0.754681,4.38061 -0.227465,0.98005 -0.112842,0.49039 -0.343861,1.469 0,0 -3.191872,-4.17763 -3.191872,-4.17763 v 0 c 0.22643,-0.97363 0.116051,-0.48707 0.331189,-1.45968 0.287052,-1.4447 0.543256,-2.89595 0.724551,-4.35815 0.180496,-1.43828 0.346049,-2.87884 0.482103,-4.32203 0.139062,-1.42326 0.295267,-2.84513 0.401214,-4.27139 0.113805,-1.40279 0.238974,-2.80458 0.357648,-4.20695 0.09835,-1.37038 0.164285,-2.74265 0.190915,-4.1164 0.04013,-1.34424 0.08683,-2.68834 0.115049,-4.0329 0.01183,-1.35444 -0.0098,-2.7089 -0.01511,-4.06336 -0.0093,-1.32146 -0.0191,-2.64292 -0.03101,-3.96436 -0.01159,-1.27296 -0.02392,-2.54591 -0.03896,-3.81883 -0.01447,-1.21209 -0.02992,-2.42417 -0.04895,-3.6362 -0.01807,-1.13571 -0.03736,-2.2714 -0.06156,-3.407 -0.02249,-1.03986 -0.04656,-2.07969 -0.07752,-3.11933 -0.02787,-0.91952 -0.05779,-1.839 -0.09789,-2.75808 -0.03431,-0.76806 -0.07108,-1.53607 -0.124423,-2.30307 -0.04054,-0.5604 -0.08155,-1.1214 -0.162142,-1.67778 0,0 3.357126,4.07839 3.357126,4.07839 z"
       inkscape:connector-curvature="0" />
    <path
       style="opacity:1;fill:#483737;fill-opacity:1;stroke-width:0.26458332"
       id="path30"
       d="m 81.162146,117.79838 c 0.431151,-0.18095 0.871397,-0.34034 1.312799,-0.4944 0.628184,-0.22119 1.238832,-0.4889 1.837253,-0.78036 0.717037,-0.31667 1.362768,-0.75091 1.982108,-1.22578 0.752813,-0.57808 1.395949,-1.27307 2.043358,-1.962 0.691827,-0.71823 1.324459,-1.48601 1.957004,-2.25565 0.671928,-0.84566 1.267791,-1.74658 1.898457,-2.62246 0.6638,-0.93762 1.325552,-1.87683 2.044591,-2.77319 0.737479,-0.93857 1.584923,-1.77762 2.476273,-2.56803 0.922504,-0.8017 1.972505,-1.42571 3.040274,-2.01014 1.091147,-0.56496 2.233747,-1.01573 3.411687,-1.360984 0.2083,-0.05258 0.4166,-0.105156 0.6249,-0.157734 0,0 2.71801,4.506568 2.71801,4.506568 v 0 c -0.20274,0.0495 -0.40547,0.099 -0.6082,0.14857 -1.1455,0.32188 -2.25264,0.75797 -3.3128,1.3003 -1.03364,0.56375 -2.05155,1.1644 -2.939857,1.94509 -0.866539,0.77432 -1.687398,1.59807 -2.401712,2.51753 -0.707168,0.89498 -1.361835,1.82909 -2.022417,2.75868 -0.63368,0.88719 -1.239679,1.79495 -1.925048,2.64409 -0.63841,0.77966 -1.288941,1.5473 -1.985766,2.27611 -0.666414,0.71006 -1.33908,1.41589 -2.11327,2.01184 -0.646824,0.49554 -1.320607,0.95164 -2.067695,1.28538 -0.615764,0.30442 -1.245346,0.58149 -1.890432,0.81811 -0.431924,0.14788 -0.860824,0.30652 -1.282559,0.48114 0,0 -2.796958,-4.48268 -2.796958,-4.48268 z"
       inkscape:connector-curvature="0" />
    <path
       style="opacity:1;fill:#483737;fill-opacity:1;stroke-width:0.26458332"
       id="path32"
       d="m 82.175442,154.13362 c 0.287517,0.40105 0.600516,0.78369 0.92008,1.15958 0.418505,0.53793 0.886846,1.0302 1.387158,1.49176 0.645567,0.60243 1.371549,1.10385 2.119857,1.56807 0.835525,0.50711 1.730941,0.90182 2.613491,1.31756 1.011539,0.45167 2.021416,0.90696 3.034255,1.35574 1.099539,0.46857 2.170054,1.00044 3.234705,1.54253 1.087843,0.5508 2.138993,1.16837 3.183316,1.79656 1.065829,0.62755 2.061876,1.36096 3.029676,2.12853 0.9565,0.77983 1.86845,1.60937 2.72799,2.49449 0.86502,0.88854 1.64041,1.85501 2.36833,2.85716 1.44944,2.10917 0.23857,0.33735 3.51618,5.39318 0,0 -3.51815,-3.91498 -3.51815,-3.91498 v 0 c 2.61347,4.01004 3.3384,5.11454 2.16262,3.32143 -0.70186,-1.01276 -1.44879,-1.99466 -2.30057,-2.8877 -0.83241,-0.9011 -1.72369,-1.73843 -2.66555,-2.52491 -0.94308,-0.77933 -1.91899,-1.52132 -2.96373,-2.16069 -1.038816,-0.62372 -2.07231,-1.2568 -3.149982,-1.81253 -1.059365,-0.53934 -2.114415,-1.09085 -3.21006,-1.55432 -1.012052,-0.4532 -2.02434,-0.9061 -3.041372,-1.34789 -0.893784,-0.41595 -1.797389,-0.81465 -2.660772,-1.29188 -0.774695,-0.44865 -1.531781,-0.93104 -2.209414,-1.5198 -0.516239,-0.45323 -1.033475,-0.90907 -1.455994,-1.45479 -0.309541,-0.38623 -0.64117,-0.7535 -0.947671,-1.14197 0,0 -2.174393,-4.81513 -2.174393,-4.81513 z"
       inkscape:connector-curvature="0" />
    <path
       style="opacity:1;fill:#483737;fill-opacity:1;stroke-width:0.26458332"
       id="path34"
       d="m 77.512695,136.71169 c 0.527767,8e-4 1.055534,0.002 1.583301,0.002 0.72512,7.9e-4 1.450242,10e-4 2.175362,0.002 0.884772,5.3e-4 1.769544,0.001 2.654316,0.001 1.012065,5.2e-4 2.024131,7.9e-4 3.036196,0.001 1.124752,1.7e-4 2.249504,8e-4 3.374258,0.001 0.82159,-8e-4 1.643033,-0.003 2.464509,0.0112 0,0 2.597849,4.57747 2.597849,4.57747 v 0 c -0.817925,-0.0214 -1.635779,-0.0174 -2.453966,-0.0157 -1.124257,5.3e-4 -2.248514,0.001 -3.372771,0.001 -1.011631,2.7e-4 -2.02326,8e-4 -3.034892,10e-4 -0.884227,5.3e-4 -1.768454,8e-4 -2.652681,0.001 -0.724439,5.2e-4 -1.448877,0.001 -2.173316,0.002 -0.526974,5.3e-4 -1.053947,0.001 -1.58092,0.002 0,0 -2.617245,-4.58851 -2.617245,-4.58851 z"
       inkscape:connector-curvature="0" />
    <path
       style="opacity:1;fill:#483737;fill-opacity:1;stroke-width:0.26458332"
       id="path40"
       d="m 130.96985,81.556269 c 0.11852,0.613299 0.19905,1.233069 0.27558,1.852739 0.0799,0.809184 0.21559,1.610969 0.32618,2.416308 0.18994,0.953516 0.30966,1.918753 0.47654,2.876068 0.17471,1.096568 0.38882,2.186257 0.67303,3.259791 0.28721,1.147307 0.65161,2.270755 1.07827,3.373141 0.45386,1.209307 1.00604,2.376707 1.51958,3.560869 0.54217,1.197105 1.08768,2.392235 1.63966,3.584855 0.60087,1.2369 1.14583,2.49975 1.74031,3.73959 0.57993,1.23571 1.12947,2.485 1.71139,3.71985 0.58548,1.29395 1.13007,2.60562 1.68821,3.9114 0.54551,1.3318 1.09018,2.66422 1.61816,4.00313 0.52015,1.32207 0.96689,2.67082 1.38739,4.02732 0.41866,1.36236 0.77366,2.74282 1.10826,4.12784 0.33408,1.39492 0.61686,2.80123 0.88341,4.21037 0.26635,1.42006 0.49171,2.84727 0.70418,4.27624 0.21226,1.43958 0.39191,2.88363 0.56131,4.32879 0.16913,1.45481 0.31235,2.91242 0.44742,4.37072 0.12743,1.46343 0.26469,2.92655 0.33985,4.39377 0.0845,1.45893 0.0649,2.92048 0.0569,4.381 -0.01,1.48769 -0.0198,2.97538 -0.0291,4.46308 -0.006,1.46097 -0.0795,2.92086 -0.13555,4.38058 -0.0473,1.45916 -0.16352,2.91483 -0.30012,4.36796 -0.14225,1.46315 -0.27077,2.92755 -0.39074,4.39267 -0.121,1.48321 -0.22307,2.96784 -0.31709,4.45298 -0.1,1.60686 -0.17899,3.2149 -0.25311,4.82312 -0.0762,1.67159 -0.14142,3.34364 -0.20191,5.01587 -0.0524,1.67498 -0.12876,3.34953 -0.14386,5.02538 0.003,1.60118 -0.0124,3.20282 0.029,4.80358 0.0237,1.61688 0.20417,3.22484 0.39372,4.82888 0.2055,1.62705 0.50023,3.24016 0.79964,4.85191 0.2062,1.08722 0.44983,2.16538 0.72118,3.23795 0,0 -3.38326,-4.02007 -3.38326,-4.02007 v 0 c -0.25888,-1.08008 -0.49539,-2.16494 -0.69711,-3.25734 -0.29737,-1.61844 -0.58015,-3.24023 -0.77287,-4.8751 -0.18321,-1.61477 -0.34003,-3.23418 -0.35597,-4.86078 -0.0269,-1.6045 -0.0233,-3.20947 -0.014,-4.81412 0.0302,-1.67789 0.0973,-3.35483 0.15401,-5.03198 0.0616,-1.67348 0.12788,-3.34678 0.20566,-5.01959 0.0755,-1.61101 0.156,-3.22183 0.25823,-4.8314 0.0961,-1.48747 0.20059,-2.9744 0.32411,-4.45987 0.12235,-1.4661 0.25424,-2.93134 0.39441,-4.39585 0.13015,-1.44758 0.23235,-2.89791 0.2779,-4.35087 0.056,-1.45589 0.12364,-2.91202 0.12296,-4.36931 0.009,-1.48756 0.0201,-2.97512 0.0283,-4.46269 0.006,-1.45422 0.0108,-2.90925 -0.0826,-4.36133 -0.0916,-1.46241 -0.22122,-2.92211 -0.3545,-4.38125 -0.13811,-1.45569 -0.28457,-2.91065 -0.45759,-4.36267 -0.17324,-1.44184 -0.35698,-2.88252 -0.57419,-4.31849 -0.21733,-1.42476 -0.44788,-2.84766 -0.72049,-4.26304 -0.27272,-1.40378 -0.56207,-2.80459 -0.90408,-4.19338 -0.34239,-1.37825 -0.70572,-2.75168 -1.13425,-4.10606 -0.43036,-1.34846 -0.88826,-2.68837 -1.41669,-4.00205 -0.53464,-1.33462 -1.06866,-2.66974 -1.62737,-3.99447 -0.55345,-1.30641 -1.10814,-2.61267 -1.7033,-3.90078 -0.57387,-1.23801 -1.12676,-2.48562 -1.71281,-3.71796 -0.58112,-1.24678 -1.14486,-2.501634 -1.73802,-3.742813 -0.5545,-1.192816 -1.0923,-2.393117 -1.63125,-3.593026 -0.52176,-1.18454 -1.05387,-2.364999 -1.49976,-3.581109 -0.40527,-1.118513 -0.75154,-2.256602 -1.03411,-3.412614 -0.25828,-1.087268 -0.46715,-2.184641 -0.64179,-3.288467 -0.15394,-0.963096 -0.30964,-1.92582 -0.46854,-2.888075 -0.11541,-0.806617 -0.23403,-1.612627 -0.32455,-2.422549 -0.085,-0.62148 -0.19039,-1.239768 -0.27421,-1.86128 0,0 3.35004,4.082632 3.35004,4.082632 z"
       inkscape:connector-curvature="0" />
    <path
       style="opacity:1;fill:#483737;fill-opacity:1;stroke-width:0.26458332"
       id="path42"
       d="m 127.85687,89.071272 c 0.27996,-0.415669 0.56476,-0.824521 0.89378,-1.203307 0.46957,-0.522533 1.04414,-0.92534 1.63683,-1.294167 0.70924,-0.448805 1.49026,-0.737658 2.2867,-0.986314 0.92469,-0.276915 1.86801,-0.483711 2.81298,-0.677378 1.04065,-0.236641 2.08847,-0.439618 3.13144,-0.665157 1.09571,-0.227346 2.17215,-0.529048 3.23866,-0.865349 1.13076,-0.375057 2.25592,-0.7679 3.36155,-1.211929 1.16113,-0.481201 2.31752,-0.973807 3.47736,-1.458209 1.21158,-0.509434 2.4507,-0.947624 3.69866,-1.358156 1.28307,-0.437317 2.60062,-0.751565 3.93613,-0.975993 1.35176,-0.229793 2.72254,-0.252952 4.0894,-0.221012 1.30721,0.01606 2.59904,0.196242 3.87503,0.468408 1.2173,0.266404 2.3722,0.733621 3.49986,1.253421 1.10498,0.518578 2.11721,1.200396 3.10825,1.906577 1.01845,0.707639 1.97694,1.49306 2.90167,2.317888 0.93508,0.867254 1.8331,1.774658 2.70143,2.708547 0,0 2.22067,4.770168 2.22067,4.770168 v 0 c -0.85558,-0.938533 -1.74268,-1.846315 -2.657,-2.727907 -0.90776,-0.830337 -1.83693,-1.637673 -2.84733,-2.342901 -0.97497,-0.700239 -1.94604,-1.412412 -3.0251,-1.948927 -1.09115,-0.534815 -2.21279,-1.016799 -3.39621,-1.309179 -1.24453,-0.291798 -2.50656,-0.497025 -3.78812,-0.517829 -1.33632,-0.04947 -2.67874,-0.04324 -4.00269,0.170513 -1.31256,0.204452 -2.60645,0.506693 -3.86566,0.933858 -1.236,0.40337 -2.46343,0.833974 -3.66299,1.336936 -1.16177,0.484844 -2.31963,0.978916 -3.48182,1.462633 -1.11616,0.453332 -2.2534,0.851215 -3.39521,1.234869 -1.0802,0.343244 -2.16823,0.659865 -3.27886,0.891132 -1.04391,0.232164 -2.0963,0.425405 -3.13742,0.671002 -0.92921,0.187177 -1.8568,0.386993 -2.7672,0.653015 -0.75561,0.229347 -1.49894,0.489403 -2.16962,0.916959 -0.54644,0.34013 -1.0769,0.711703 -1.49814,1.205013 -0.3101,0.378193 -0.57716,0.786482 -0.8593,1.185471 0,0 -3.03773,-4.322696 -3.03773,-4.322696 z"
       inkscape:connector-curvature="0" />
    <path
       style="opacity:1;fill:#483737;fill-opacity:1;stroke-width:0.26458332"
       id="path44"
       d="m 145.14736,193.40628 c 0.16744,-0.45922 0.30175,-0.92864 0.45606,-1.39246 0.17503,-0.62049 0.36836,-1.23505 0.54926,-1.85388 0.25227,-0.78513 0.54255,-1.5579 0.82194,-2.33384 0.35769,-0.94279 0.79729,-1.85008 1.28322,-2.73258 0.56299,-0.95576 1.19864,-1.86771 1.87563,-2.74574 0.71139,-0.91219 1.56792,-1.69208 2.41223,-2.4771 0.92749,-0.83767 1.8809,-1.64602 2.83618,-2.45167 1.00443,-0.85226 2.013,-1.69954 3.02624,-2.54131 1.05628,-0.88094 2.08317,-1.79698 3.10902,-2.71304 1.05442,-0.93489 2.01837,-1.96045 2.96115,-3.00557 0.96281,-1.06426 1.8205,-2.21465 2.63166,-3.3966 0.7878,-1.15887 1.46855,-2.38397 2.11094,-3.62775 0.63799,-1.27793 1.17308,-2.60289 1.6803,-3.93696 0.50568,-1.34227 0.93615,-2.7107 1.34212,-4.08584 0.4038,-1.38427 0.75181,-2.78382 1.0692,-4.19015 0.32307,-1.45467 0.5952,-2.91984 0.85273,-4.3873 0.23259,-1.46302 0.48627,-2.92203 0.7437,-4.38085 0.16406,-0.95386 0.0771,-0.479 0.26063,-1.42461 0,0 3.21047,4.16537 3.21047,4.16537 v 0 c -0.17515,0.94067 -0.0899,0.46733 -0.25557,1.42002 -0.25823,1.45848 -0.50082,2.91931 -0.74439,4.38028 -0.26345,1.47315 -0.54159,2.94398 -0.87294,4.4036 -0.32708,1.41341 -0.68228,2.8205 -1.09594,4.21135 -0.41603,1.38366 -0.85705,2.76033 -1.3744,4.10999 -0.52119,1.3473 -1.07042,2.68549 -1.72802,3.97308 -0.6597,1.25715 -1.35836,2.49498 -2.16451,3.66537 -0.83062,1.1949 -1.70806,2.35743 -2.68818,3.43518 -0.95661,1.05773 -1.93813,2.09242 -3.00731,3.03855 -1.03147,0.91899 -2.06141,1.84074 -3.12344,2.72444 -1.0118,0.84154 -2.01962,1.68778 -3.0221,2.54041 -0.94816,0.80091 -1.89554,1.60337 -2.81396,2.43843 -0.82174,0.76726 -1.65319,1.53201 -2.33789,2.4289 -0.65373,0.86341 -1.27501,1.75472 -1.80813,2.69847 -0.4623,0.86974 -0.88269,1.76163 -1.217,2.68925 -0.27749,0.76845 -0.56124,1.53586 -0.79503,2.31896 -0.18712,0.62209 -0.36368,1.24729 -0.56051,1.86634 -0.1551,0.47126 -0.28573,0.95091 -0.47371,1.41085 0,0 -3.14965,-4.24159 -3.14965,-4.24159 z"
       inkscape:connector-curvature="0" />
    <path
       style="opacity:1;fill:#483737;fill-opacity:1;stroke-width:0.26458332"
       id="path46"
       d="m 140.91405,123.06987 c 0.53271,-0.26092 1.04965,-0.55179 1.56626,-0.84284 0.65792,-0.40169 1.30256,-0.82382 1.95789,-1.22978 0.7594,-0.47641 1.48652,-1.00189 2.21774,-1.51994 0.84214,-0.56142 1.6366,-1.18909 2.44465,-1.79732 0.90673,-0.68325 1.83448,-1.33938 2.77672,-1.97274 0.96434,-0.66105 2.00305,-1.19034 3.0679,-1.66654 1.09687,-0.47046 2.26579,-0.71517 3.43759,-0.90905 1.09547,-0.19175 2.2015,-0.16658 3.30351,-0.0678 1.00949,0.094 1.99004,0.3585 2.95273,0.66531 0.9446,0.32406 1.83557,0.7796 2.70628,1.26383 0,0 2.3701,4.70529 2.3701,4.70529 v 0 c -0.8432,-0.49138 -1.70509,-0.95369 -2.61537,-1.31009 -0.92412,-0.32666 -1.8737,-0.59836 -2.84803,-0.72341 -1.06163,-0.11084 -2.12729,-0.17982 -3.18778,-0.002 -1.13,0.17712 -2.26069,0.39308 -3.32098,0.83818 -1.0388,0.46054 -2.05249,0.97194 -2.99096,1.61772 -0.93418,0.62841 -1.85425,1.27907 -2.75219,1.9583 -0.81127,0.61254 -1.60977,1.24332 -2.45571,1.80836 -0.73949,0.5251 -1.47588,1.05608 -2.24345,1.53981 -0.66066,0.41085 -1.31131,0.83678 -1.97441,1.24363 -0.52738,0.2997 -1.05575,0.59774 -1.59796,0.87001 0,0 -2.81453,-4.4691 -2.81453,-4.4691 z"
       inkscape:connector-curvature="0" />
    <path
       style="opacity:1;fill:#483737;fill-opacity:1;stroke-width:0.26458332"
       id="path48"
       d="m 101.8302,123.89553 c 0.28593,0.38588 0.54703,0.78883 0.83196,1.17548 0.10889,0.16617 0.23899,0.31779 0.34768,0.4841 8.83234,13.58667 -0.33362,-0.50975 0.35692,0.53991 2.799,4.25466 2.1135,3.08429 3.19822,4.95482 0.35319,0.67437 0.71554,1.34239 1.03046,2.03596 0.33873,0.81883 0.66243,1.64534 0.94894,2.48404 0.30478,0.98244 0.64117,1.95422 0.93997,2.9386 0.29881,1.06667 0.59459,2.13439 0.87935,3.20497 0.31359,1.15419 0.6047,2.31467 0.91978,3.46846 0.34856,1.23804 0.63458,2.49168 0.90142,3.74942 0.27877,1.32817 0.51173,2.66522 0.73102,4.00429 0.22192,1.36777 0.40808,2.7409 0.58335,4.1153 0.17667,1.39771 0.32521,2.79872 0.46513,4.20051 0.14065,1.42129 0.25916,2.84462 0.37084,4.26843 0.11199,1.43993 0.20652,2.88111 0.29563,4.32261 0.0892,1.45468 0.16458,2.91015 0.23567,4.36581 0.071,1.46639 0.13116,2.93327 0.18787,4.40027 0.0566,1.47568 0.10453,2.95167 0.14975,4.42774 0.0535,1.49555 0.0875,2.99074 0.0801,4.48719 0.007,1.5385 -0.045,3.07527 -0.10771,4.61215 -0.0106,0.25586 -0.0211,0.51171 -0.0317,0.76757 0,0 -3.2699,-4.11594 -3.2699,-4.11594 v 0 c 0.0104,-0.25573 0.0208,-0.51147 0.0312,-0.7672 0.0597,-1.5328 0.0974,-3.06588 0.0921,-4.60002 -5.3e-4,-1.49298 -0.046,-2.98493 -0.0944,-4.47705 -0.0463,-1.47523 -0.0953,-2.95038 -0.15319,-4.42521 -0.058,-1.46594 -0.11952,-2.93175 -0.19221,-4.39704 -0.0727,-1.45431 -0.1499,-2.90841 -0.24121,-4.36169 -0.0912,-1.43976 -0.18798,-2.8792 -0.30269,-4.31731 -0.11436,-1.42159 -0.23573,-2.84266 -0.37986,-4.26159 -0.14336,-1.39892 -0.29558,-2.79702 -0.47675,-4.19162 -0.17968,-1.37069 -0.37058,-2.74003 -0.59838,-4.10367 -0.22499,-1.33421 -0.46397,-2.66631 -0.75098,-3.9888 -0.27532,-1.2527 -0.57755,-2.49891 -0.92283,-3.73437 -0.30518,-1.1571 -0.61262,-2.31353 -0.9213,-3.4697 -0.29053,-1.06678 -0.57497,-2.13567 -0.89568,-3.19384 -0.30895,-0.97861 -0.63116,-1.95325 -0.95786,-2.92601 -0.30563,-0.8268 -0.61526,-1.65427 -0.99135,-2.45212 -0.33461,-0.67884 -0.68767,-1.35007 -1.07314,-2.00143 -0.062,-0.0974 -0.24894,-0.38898 -0.18593,-0.29224 0.88693,1.36164 3.54561,5.44793 2.65766,4.08696 -9.902368,-15.17763 2.03579,3.04705 -0.6864,-1.02929 -0.2742,-0.39273 -0.57135,-0.76811 -0.82723,-1.17332 0,0 -2.1744,-4.81513 -2.1744,-4.81513 z"
       inkscape:connector-curvature="0" />
    <path
       style="opacity:1;fill:#483737;fill-opacity:1;stroke-width:0.26458332"
       id="path50"
       d="m 96.854162,128.37373 c 0.288015,-0.42572 0.581978,-0.84771 0.845312,-1.28943 0.378733,-0.58552 0.745908,-1.17787 1.139095,-1.75395 0.470937,-0.74969 1.000016,-1.45857 1.526391,-2.16934 0.57301,-0.7939 1.13632,-1.59626 1.75202,-2.35788 0.65595,-0.82268 1.33128,-1.63043 2.04542,-2.40327 0.75465,-0.82811 1.59641,-1.56917 2.47109,-2.26683 0.90848,-0.76492 1.88907,-1.43282 2.87832,-2.08681 1.02748,-0.68433 2.11112,-1.2754 3.21322,-1.82891 1.12219,-0.57508 2.29399,-1.0268 3.49888,-1.39222 1.18452,-0.35455 2.39544,-0.60632 3.61413,-0.80869 1.19933,-0.19064 2.40958,-0.21403 3.61886,-0.14052 1.21444,0.0584 2.39587,0.30506 3.55184,0.66945 1.08403,0.38261 2.13557,0.85139 3.16249,1.36647 0.99328,0.51152 1.90348,1.16035 2.77018,1.86104 0.85881,0.70503 1.59933,1.53276 2.29345,2.39623 1.65946,2.30335 3.49085,4.5791 4.50412,7.24748 0.35563,1.07013 0.53579,2.18781 0.65344,3.30622 0.12806,1.06529 0.0679,2.13781 -0.007,3.20404 -0.0996,1.06563 -0.37634,2.10429 -0.71926,3.1149 -0.39041,1.04389 -0.84159,2.06442 -1.32585,3.06789 -0.5157,1.05278 -1.13229,2.04913 -1.77494,3.02784 -0.72603,1.0956 -1.50888,2.15183 -2.30898,3.19405 -0.81103,1.05047 -1.64144,2.08555 -2.46566,3.12561 -0.81232,1.02064 -1.70996,1.9682 -2.58917,2.93044 -0.9185,0.98171 -1.89208,1.9101 -2.8548,2.84798 -1.00662,0.95664 -2.00826,1.91839 -3.02209,2.86743 -0.98873,0.96417 -2.01436,1.88901 -3.02295,2.83208 -1.03521,0.9681 -2.12249,1.87766 -3.17912,2.82176 -1.06323,0.92908 -2.13339,1.85042 -3.20665,2.76795 -0.84448,0.71043 -1.60176,1.51563 -2.37456,2.30147 -0.40485,0.41957 -0.8218,0.81476 -1.05769,1.35542 -0.0841,0.24988 -0.0244,0.41693 0.16978,0.57823 -0.88816,-1.39591 -1.77632,-2.79181 -2.66449,-4.18772 0.31752,0.30424 0.70242,0.31535 1.1155,0.27434 0.51742,-0.0757 1.0126,-0.24906 1.4963,-0.4419 0.64059,-0.30198 1.27493,-0.61685 1.92012,-0.909 0.79666,-0.35705 1.62534,-0.63267 2.4592,-0.88746 0.94667,-0.28374 1.91036,-0.504 2.87656,-0.70913 1.07986,-0.25969 2.18169,-0.36341 3.28669,-0.43791 1.18361,-0.088 2.36922,-0.11311 3.55462,-0.0581 1.24835,0.0698 2.47091,0.3309 3.67086,0.66918 1.15515,0.31554 2.25903,0.77038 3.32149,1.31792 0.98745,0.51899 1.86896,1.19989 2.70074,1.93693 0.81412,0.73475 1.50725,1.58431 2.15588,2.46466 1.7036,2.29536 3.24306,4.68054 4.38826,7.28742 0.43604,1.01737 0.77763,2.07364 1.05851,3.14347 0.28063,1.06204 0.40959,2.15511 0.47859,3.24901 0.0765,1.16043 0.0466,2.32353 0.0311,3.48533 -0.0532,1.19299 -0.12386,2.38511 -0.18529,3.5777 -0.0585,1.25933 -0.13386,2.51829 -0.14849,3.77906 0.005,0.21296 0.0104,0.42592 0.0156,0.63888 0,0 -3.2959,-4.10238 -3.2959,-4.10238 v 0 c -8e-4,-0.2165 -0.001,-0.43301 -0.002,-0.64951 0.0325,-1.26457 0.0976,-2.52796 0.16104,-3.79129 0.0621,-1.18801 0.13737,-2.37569 0.16865,-3.56502 0.0124,-1.15293 0.0273,-2.30741 -0.0692,-3.45769 -0.0988,-1.07483 -0.25168,-2.14575 -0.55723,-3.18389 -0.30879,-1.05195 -0.65831,-2.09377 -1.11927,-3.0902 -0.2331,-0.50151 -0.46921,-0.99984 -0.73694,-1.48415 -0.088,-0.15909 -0.37251,-0.62412 -0.27191,-0.47272 0.5699,0.85775 3.63995,5.5766 2.24826,3.4378 -0.61696,-0.89071 -1.27648,-1.75409 -2.05654,-2.51039 -0.7907,-0.75243 -1.63103,-1.45329 -2.58287,-1.99613 -1.02432,-0.57171 -2.09366,-1.0533 -3.22668,-1.36962 -1.16114,-0.35906 -2.34785,-0.6352 -3.56316,-0.72703 -1.1662,-0.0745 -2.33385,-0.0586 -3.49948,0.0275 -1.08175,0.0676 -2.1632,0.14581 -3.22042,0.40231 -0.95237,0.19897 -1.9024,0.41239 -2.83611,0.68768 -0.8134,0.24458 -1.62219,0.50874 -2.39945,0.85397 -0.65157,0.29337 -1.29141,0.61147 -1.93468,0.92246 -0.52245,0.21752 -1.05736,0.40554 -1.6136,0.5166 -0.49886,0.0735 -1.00963,0.14018 -1.48412,-0.0796 -1.14665,-1.67147 -3.90385,-3.33021 -2.91497,-5.41243 0.31379,-0.55007 0.7543,-0.99311 1.19736,-1.44111 0.78697,-0.79127 1.55919,-1.60081 2.41747,-2.31643 1.07013,-0.91546 2.13908,-1.83253 3.19818,-2.76069 1.05489,-0.94006 2.13679,-1.84977 3.16835,-2.81592 1.00865,-0.94275 2.03287,-1.86885 3.0224,-2.83193 1.01058,-0.94739 2.01084,-1.90558 3.01351,-2.8613 0.95478,-0.93191 1.92024,-1.85462 2.82858,-2.83241 0.87087,-0.95395 1.75843,-1.89484 2.55925,-2.90973 0.82409,-1.03626 1.64994,-2.07108 2.45805,-3.11993 0.78896,-1.03537 1.56355,-2.08252 2.27535,-3.17303 0.6246,-0.96526 1.22081,-1.94998 1.71651,-2.98894 0.4655,-0.99077 0.91289,-1.9927 1.27033,-3.02829 0.30805,-0.98724 0.55479,-1.99789 0.61436,-3.03432 0.06,-1.04793 0.0793,-2.09992 -0.0675,-3.14266 -0.14864,-1.09232 -0.34183,-2.1874 -0.76376,-3.21225 -0.21641,-0.47453 -0.22877,-0.53101 -0.48793,-0.98259 -0.0918,-0.1599 -0.38917,-0.62631 -0.28788,-0.47226 4.63774,7.05335 2.96446,4.47995 1.90763,2.9767 -0.66088,-0.87472 -1.36651,-1.71757 -2.19212,-2.4437 -0.82951,-0.71703 -1.70764,-1.37707 -2.66736,-1.91227 -0.99865,-0.5346 -2.03481,-0.9933 -3.08972,-1.40569 -1.11335,-0.39044 -2.25276,-0.67156 -3.43665,-0.73264 -1.17264,-0.0972 -2.34654,-0.0924 -3.51353,0.0799 -1.19918,0.18617 -2.38976,0.43064 -3.55517,0.77205 -1.17893,0.34908 -2.32579,0.78081 -3.4213,1.34412 -1.08422,0.54232 -2.15014,1.12208 -3.15969,1.79548 -0.97553,0.64595 -1.94232,1.30566 -2.83774,2.06146 -0.85125,0.68488 -1.67068,1.41097 -2.40336,2.22361 -0.70152,0.7686 -1.36801,1.5684 -2.0146,2.38368 -0.60235,0.76472 -1.16515,1.55944 -1.73578,2.34792 -0.5226,0.70529 -1.03297,1.41874 -1.50496,2.15934 -0.3827,0.5743 -0.74892,1.15938 -1.11749,1.7428 -0.27576,0.4423 -0.56951,0.87298 -0.859635,1.30593 0,0 -3.055048,-4.30986 -3.055048,-4.30986 z"
       inkscape:connector-curvature="0" />
  </g>
</svg>
