<?xml version="1.0" encoding="UTF-8" standalone="no"?>
<!-- Created with Inkscape (http://www.inkscape.org/) -->

<svg
   xmlns:osb="http://www.openswatchbook.org/uri/2009/osb"
   xmlns:dc="http://purl.org/dc/elements/1.1/"
   xmlns:cc="http://creativecommons.org/ns#"
   xmlns:rdf="http://www.w3.org/1999/02/22-rdf-syntax-ns#"
   xmlns:svg="http://www.w3.org/2000/svg"
   xmlns="http://www.w3.org/2000/svg"
   xmlns:xlink="http://www.w3.org/1999/xlink"
   xmlns:sodipodi="http://sodipodi.sourceforge.net/DTD/sodipodi-0.dtd"
   xmlns:inkscape="http://www.inkscape.org/namespaces/inkscape"
   width="193.84801mm"
   height="220.95389mm"
   viewBox="0 0 193.84801 220.95389"
   version="1.1"
   id="svg8"
   inkscape:version="0.92.3 (2405546, 2018-03-11)"
   sodipodi:docname="logo musica.svg">
  <title
     id="title2468">martin</title>
  <defs
     id="defs2">
    <linearGradient
       inkscape:collect="always"
       id="linearGradient2414">
      <stop
         style="stop-color:#2c89a0;stop-opacity:1;"
         offset="0"
         id="stop2410" />
      <stop
         style="stop-color:#2c89a0;stop-opacity:0;"
         offset="1"
         id="stop2412" />
    </linearGradient>
    <linearGradient
       inkscape:collect="always"
       id="linearGradient2406">
      <stop
         style="stop-color:#2a7fff;stop-opacity:1;"
         offset="0"
         id="stop2402" />
      <stop
         style="stop-color:#2a7fff;stop-opacity:0;"
         offset="1"
         id="stop2404" />
    </linearGradient>
    <linearGradient
       inkscape:collect="always"
       id="linearGradient2398">
      <stop
         style="stop-color:#2c89a0;stop-opacity:1;"
         offset="0"
         id="stop2394" />
      <stop
         style="stop-color:#2c89a0;stop-opacity:0;"
         offset="1"
         id="stop2396" />
    </linearGradient>
    <linearGradient
       inkscape:collect="always"
       id="linearGradient2390">
      <stop
         style="stop-color:#2a7fff;stop-opacity:1;"
         offset="0"
         id="stop2386" />
      <stop
         style="stop-color:#2a7fff;stop-opacity:0;"
         offset="1"
         id="stop2388" />
    </linearGradient>
    <linearGradient
       inkscape:collect="always"
       id="linearGradient2362">
      <stop
         style="stop-color:#ff0064;stop-opacity:1;"
         offset="0"
         id="stop2358" />
      <stop
         style="stop-color:#ff0064;stop-opacity:0;"
         offset="1"
         id="stop2360" />
    </linearGradient>
    <linearGradient
       inkscape:collect="always"
       id="linearGradient2354">
      <stop
         style="stop-color:#ff55db;stop-opacity:1;"
         offset="0"
         id="stop2350" />
      <stop
         style="stop-color:#ff55db;stop-opacity:0;"
         offset="1"
         id="stop2352" />
    </linearGradient>
    <linearGradient
       id="linearGradient2310"
       osb:paint="solid">
      <stop
         style="stop-color:#9dda81;stop-opacity:1;"
         offset="0"
         id="stop2308" />
    </linearGradient>
    <inkscape:perspective
       sodipodi:type="inkscape:persp3d"
       inkscape:vp_x="205.61905 : 86.51191 : 1"
       inkscape:vp_y="0 : 999.99997 : 0"
       inkscape:vp_z="244.77383 : 407.79167 : 1"
       inkscape:persp3d-origin="89.880962 : 49.86309 : 1"
       id="perspective10" />
    <radialGradient
       inkscape:collect="always"
       xlink:href="#linearGradient2354"
       id="radialGradient2356"
       cx="149.3006"
       cy="122.75297"
       fx="149.3006"
       fy="122.75297"
       r="5.6696429"
       gradientTransform="matrix(1,0,0,1.933333,-19.654761,-114.56939)"
       gradientUnits="userSpaceOnUse" />
    <radialGradient
       inkscape:collect="always"
       xlink:href="#linearGradient2362"
       id="radialGradient2364"
       cx="116.79464"
       cy="111.79166"
       fx="116.79464"
       fy="111.79166"
       r="13.985119"
       gradientTransform="matrix(1,0,0,1.7297298,-19.654761,-81.577705)"
       gradientUnits="userSpaceOnUse" />
    <linearGradient
       inkscape:collect="always"
       xlink:href="#linearGradient2390"
       id="linearGradient2392"
       x1="161.8064"
       y1="161.09731"
       x2="180.83221"
       y2="161.09731"
       gradientUnits="userSpaceOnUse"
       gradientTransform="translate(-19.654761)" />
    <linearGradient
       inkscape:collect="always"
       xlink:href="#linearGradient2398"
       id="linearGradient2400"
       x1="150.91747"
       y1="161.18423"
       x2="155.86829"
       y2="161.18423"
       gradientUnits="userSpaceOnUse"
       gradientTransform="translate(-19.654761)" />
    <linearGradient
       inkscape:collect="always"
       xlink:href="#linearGradient2406"
       id="linearGradient2408"
       x1="133.81435"
       y1="162.13646"
       x2="148.51717"
       y2="162.13646"
       gradientUnits="userSpaceOnUse"
       gradientTransform="translate(-19.654761)" />
    <linearGradient
       inkscape:collect="always"
       xlink:href="#linearGradient2414"
       id="linearGradient2416"
       x1="115.98089"
       y1="157.41414"
       x2="132.93312"
       y2="157.41414"
       gradientUnits="userSpaceOnUse"
       gradientTransform="translate(-19.654761)" />
  </defs>
  <sodipodi:namedview
     id="base"
     pagecolor="#ffffff"
     bordercolor="#666666"
     borderopacity="1.0"
     inkscape:pageopacity="0.0"
     inkscape:pageshadow="2"
     inkscape:zoom="0.35"
     inkscape:cx="1009.8091"
     inkscape:cy="346.2831"
     inkscape:document-units="mm"
     inkscape:current-layer="layer1"
     showgrid="false"
     inkscape:snap-global="true"
     inkscape:snap-bbox="true"
     inkscape:snap-nodes="false"
     inkscape:window-width="1366"
     inkscape:window-height="705"
     inkscape:window-x="-8"
     inkscape:window-y="-8"
     inkscape:window-maximized="1" />
  <metadata
     id="metadata5">
    <rdf:RDF>
      <cc:Work
         rdf:about="">
        <dc:format>image/svg+xml</dc:format>
        <dc:type
           rdf:resource="http://purl.org/dc/dcmitype/StillImage" />
        <dc:title>martin</dc:title>
      </cc:Work>
    </rdf:RDF>
  </metadata>
  <g
     inkscape:label="Capa 1"
     inkscape:groupmode="layer"
     id="layer1"
     transform="translate(-14.989146,-27.998766)">
    <g
       sodipodi:type="inkscape:box3d"
       id="g12"
       style="opacity:1;fill:#050505;fill-opacity:1;stroke:#f817c1;stroke-width:1;stroke-miterlimit:4;stroke-dasharray:none;stroke-opacity:0.29292932"
       inkscape:perspectiveID="#perspective10"
       inkscape:corner0="8.0545748 : 0.098943588 : 0 : 1"
       inkscape:corner7="-0.43610872 : -0.012466962 : 0.066973075 : 1">
      <path
         sodipodi:type="inkscape:box3dside"
         id="path14"
         style="fill:#050505;fill-opacity:1;fill-rule:evenodd;stroke:#f817c1;stroke-width:1;stroke-linejoin:round;stroke-miterlimit:4;stroke-dasharray:none;stroke-opacity:0.29292932"
         inkscape:box3dsidetype="6"
         d="m 207.82591,155.56082 v 12.30434 l 0.38134,-2.39876 v -12.21399 z"
         points="207.82591,167.86516 208.20725,165.4664 208.20725,153.25241 207.82591,155.56082 " />
      <path
         sodipodi:type="inkscape:box3dside"
         id="path18"
         style="fill:#050505;fill-opacity:1;fill-rule:evenodd;stroke:#f817c1;stroke-width:1;stroke-linejoin:round;stroke-miterlimit:4;stroke-dasharray:none;stroke-opacity:0.29292932"
         inkscape:box3dsidetype="3"
         d="M 207.82591,155.56082 15.359255,51.96774 v 197.57452 l 192.466655,-81.6771 z"
         points="15.359255,51.96774 15.359255,249.54226 207.82591,167.86516 207.82591,155.56082 " />
      <path
         sodipodi:type="inkscape:box3dside"
         id="path16"
         style="fill:#050505;fill-opacity:1;fill-rule:evenodd;stroke:#f817c1;stroke-width:1;stroke-linejoin:round;stroke-miterlimit:4;stroke-dasharray:none;stroke-opacity:0.29292932"
         inkscape:box3dsidetype="5"
         d="M 207.82591,155.56082 15.359255,51.96774 41.305353,29.588322 208.20725,153.25241 Z"
         points="15.359255,51.96774 41.305353,29.588322 208.20725,153.25241 207.82591,155.56082 " />
      <path
         sodipodi:type="inkscape:box3dside"
         id="path24"
         style="fill:#050505;fill-opacity:1;fill-rule:evenodd;stroke:#f817c1;stroke-width:1;stroke-linejoin:round;stroke-miterlimit:4;stroke-dasharray:none;stroke-opacity:0.29292932"
         inkscape:box3dsidetype="11"
         d="M 208.20725,153.25241 41.305353,29.588322 V 206.18817 L 208.20725,165.4664 Z"
         points="41.305353,29.588322 41.305353,206.18817 208.20725,165.4664 208.20725,153.25241 " />
      <path
         sodipodi:type="inkscape:box3dside"
         id="path22"
         style="fill:#050505;fill-opacity:1;fill-rule:evenodd;stroke:#f817c1;stroke-width:1;stroke-linejoin:round;stroke-miterlimit:4;stroke-dasharray:none;stroke-opacity:0.29292932"
         inkscape:box3dsidetype="13"
         d="M 207.82591,167.86516 15.359255,249.54226 41.305353,206.18817 208.20725,165.4664 Z"
         points="15.359255,249.54226 41.305353,206.18817 208.20725,165.4664 207.82591,167.86516 " />
      <path
         sodipodi:type="inkscape:box3dside"
         id="path20"
         style="fill:#050505;fill-opacity:1;fill-rule:evenodd;stroke:#f817c1;stroke-width:1;stroke-linejoin:round;stroke-miterlimit:4;stroke-dasharray:none;stroke-opacity:0.29292932"
         inkscape:box3dsidetype="14"
         d="M 15.359255,51.96774 V 249.54226 L 41.305353,206.18817 V 29.588322 Z"
         points="15.359255,249.54226 41.305353,206.18817 41.305353,29.588322 15.359255,51.96774 " />
    </g>
    <path
       style="opacity:1;fill:url(#radialGradient2364);fill-opacity:1;stroke-width:0.26458332"
       id="path26"
       sodipodi:type="arc"
       sodipodi:cx="97.139877"
       sodipodi:cy="111.79166"
       sodipodi:rx="13.985119"
       sodipodi:ry="24.190477"
       sodipodi:start="6.238662"
       sodipodi:end="6.0244053"
       sodipodi:open="true"
       d="M 111.11114,110.71497 A 13.985119,24.190477 0 0 1 98.509444,135.86586 13.985119,24.190477 0 0 1 83.315267,115.44614 13.985119,24.190477 0 0 1 94.290011,88.108767 13.985119,24.190477 0 0 1 110.65933,105.60128" />
    <path
       style="opacity:1;fill:url(#radialGradient2356);fill-opacity:1;stroke-width:0.26458332"
       id="path28"
       sodipodi:type="arc"
       sodipodi:cx="129.64583"
       sodipodi:cy="122.75298"
       sodipodi:rx="5.6696429"
       sodipodi:ry="10.961308"
       sodipodi:start="6.238662"
       sodipodi:end="6.0244053"
       sodipodi:open="true"
       d="m 135.30985,122.26511 a 5.6696429,10.961308 0 0 1 -5.10879,11.39649 5.6696429,10.961308 0 0 1 -6.1598,-9.25268 5.6696429,10.961308 0 0 1 4.44922,-12.38724 5.6696429,10.961308 0 0 1 6.63621,7.92629" />
    <path
       style="opacity:1;fill:#0055d4;fill-opacity:1;stroke-width:0.26458332"
       id="path35"
       d="m 55.360138,188.07782 c 0.40604,-0.43893 0.718277,-0.95329 1.033716,-1.45831 0.620019,-0.98323 1.0619,-2.05863 1.492747,-3.13382 0.604944,-1.47492 1.085864,-2.99609 1.536486,-4.5239 0.507982,-1.74441 0.990126,-3.49641 1.451658,-5.25367 0.521123,-1.885 0.970534,-3.78846 1.401857,-5.69564 0.459881,-1.98774 0.9085,-3.97818 1.334141,-5.97355 0.422325,-2.09916 0.855768,-4.19612 1.26016,-6.29885 0.402063,-2.10249 0.751393,-4.21452 1.074975,-6.33036 0.314889,-2.08646 0.592826,-4.17821 0.85901,-6.27136 0.256408,-2.03781 0.475673,-4.07994 0.68412,-6.12312 0.201533,-2.01427 0.377116,-4.031 0.545272,-6.04829 0.155339,-1.95622 0.317772,-3.91235 0.418097,-5.87229 0.08575,-1.88277 0.146479,-3.76657 0.20643,-5.6503 0.03416,-1.85969 0.02482,-3.71924 -0.01601,-5.57863 -0.08375,-2.0342 -0.224665,-4.0669 -0.437393,-6.09173 -0.201404,-2.14545 -0.561065,-4.26997 -0.960091,-6.38601 -0.450805,-2.352735 -1.046467,-4.673345 -1.641329,-6.992615 -0.602544,-2.3691 -1.312284,-4.70828 -2.04487,-7.03981 -0.729485,-2.24964 -1.482846,-4.49151 -2.287831,-6.7153 -0.758155,-2.12416 -1.5753,-4.22643 -2.397392,-6.32642 -0.770416,-1.97361 -1.598885,-3.92314 -2.43256,-5.87061 -0.656665,-1.51651 -1.321499,-3.02935 -2.003769,-4.53453 -0.388499,-0.91069 -0.740154,-1.834 -1.07895,-2.76382 -0.09105,-0.39449 -0.350478,-0.80611 -0.270706,-1.22245 0.117737,-0.28964 0.474237,-0.43651 0.766892,-0.37578 1.452912,1.7207 2.597478,3.72177 3.642154,5.72363 0.366768,0.63892 0.684892,1.30308 1.017548,1.95982 0.441272,0.8562 0.843962,1.73098 1.258646,2.60007 0.504974,1.03209 0.950841,2.09173 1.398974,3.14935 0.522886,1.13515 0.964346,2.30407 1.408814,3.47125 0.480787,1.27943 0.89867,2.58111 1.351801,3.87033 0.474432,1.40606 0.965856,2.80664 1.42643,4.21729 0.553357,1.5975 1.060714,3.21 1.584605,4.81723 0.523928,1.62535 1.013317,3.2614 1.543566,4.88474 0.532977,1.62573 1.012018,3.26823 1.533557,4.8976 0.516054,1.640155 1.026755,3.282155 1.512935,4.931445 0.510241,1.6496 0.989793,3.30836 1.480635,4.96377 0.478165,1.59812 0.961181,3.19487 1.44055,4.79273 0.475729,1.63785 0.931765,3.28165 1.381202,4.92697 0.435869,1.66242 0.823222,3.3367 1.241433,5.00356 0.38685,1.60711 0.779454,3.21278 1.164635,4.8203 0.411577,1.58679 0.85812,3.16404 1.265465,4.75205 0.428931,1.53451 0.836154,3.07491 1.245721,4.61466 0.44755,1.50344 0.85228,3.01875 1.26019,4.53322 0.28302,1.03069 0.5727,2.06589 1.07842,3.01238 0.98581,1.52248 2.28981,3.55722 -2.38367,-3.68647 -0.0508,-0.0788 0.0984,0.16968 0.0987,0.26345 0.12067,-0.2929 0.20766,-0.60923 0.28253,-0.92063 0.17194,-0.69717 0.27178,-1.40516 0.33625,-2.11913 0.0738,-0.88068 0.12419,-1.76308 0.17215,-2.64548 0.0539,-1.01058 0.0957,-2.02175 0.1348,-3.03299 0.0436,-1.13116 0.0769,-2.26266 0.10793,-3.39422 0.0335,-1.23994 0.0607,-2.48003 0.0862,-3.72015 0.0265,-1.29639 0.0483,-2.59286 0.0688,-3.88935 -0.005,-1.36965 0.11827,-2.73238 0.26889,-4.09199 0.15549,-1.48432 0.47301,-2.93927 0.81415,-4.38961 0.39168,-1.55791 0.84357,-3.09932 1.30442,-4.63784 0.47117,-1.48881 1.00479,-2.9573 1.57994,-4.40887 0.54159,-1.42887 1.17889,-2.81739 1.8539,-4.18726 0.69329,-1.404765 1.49615,-2.749455 2.31274,-4.084815 0.84821,-1.34145 1.8063,-2.60892 2.77433,-3.86513 0.78298,-0.97157 1.57061,-1.94061 2.397815,-2.87511 0.440832,-0.5186 0.878792,-1.03897 1.327212,-1.55102 0.1611,-0.24563 0.38504,-0.41694 0.6516,-0.52975 2.23072,-0.62802 3.427174,3.51128 2.870514,5.48517 -0.190334,0.55819 -0.351924,1.12538 -0.524524,1.68922 -0.24371,0.80085 -0.50786,1.5934 -0.78627,2.38278 -0.35172,0.99687 -0.73045,1.98359 -1.10625,2.971515 -0.387,1.08204 -0.77197,2.16497 -1.14701,3.2513 -0.39304,1.12214 -0.69298,2.27287 -1.02413,3.41381 -0.352952,1.23824 -0.690042,2.48109 -1.006557,3.72914 -0.33557,1.36158 -0.62784,2.73314 -0.94164,4.0998 -0.32194,1.39136 -0.60111,2.79193 -0.86316,4.19563 -0.26219,1.41599 -0.48404,2.83892 -0.69315,4.26356 -0.20905,1.44065 -0.38856,2.88532 -0.55241,4.33174 -0.16703,1.49798 -0.30756,2.99872 -0.44057,4.50005 -0.13237,1.5057 -0.24501,3.01302 -0.35137,4.52076 -0.1055,1.50724 -0.19529,3.01552 -0.28005,4.52405 -0.0841,1.50832 -0.15566,3.01729 -0.22321,4.52642 -0.0339,1.50746 -0.0368,3.01541 -0.0436,4.52318 0.005,1.43998 0.11435,2.87609 0.20651,4.31229 0.0911,1.42402 0.23591,2.84412 0.35861,4.26572 0.16528,1.43572 0.35964,2.86982 0.59243,4.29632 0.22013,1.41436 0.4762,2.8223 0.80248,4.21608 0.35329,1.42046 0.69858,2.84398 1.07938,4.25743 0.37591,1.37898 0.84716,2.72769 1.30745,4.07977 0.465795,1.33356 1.045787,2.62286 1.659307,3.89389 0.92249,1.93128 4.269914,6.90605 -0.744402,-0.83764 0,0 2.142652,4.80684 2.142652,4.80684 v 0 c -1.68169,-2.58973 -3.522427,-5.12916 -4.866097,-7.9259 -0.59676,-1.28595 -1.1668,-2.58565 -1.61402,-3.93258 -0.46381,-1.35577 -0.91174,-2.71743 -1.27859,-4.10329 -0.36723,-1.42001 -0.73209,-2.84113 -1.06513,-4.26955 -0.30687,-1.40378 -0.55746,-2.81847 -0.77574,-4.2387 -0.21723,-1.43554 -0.42683,-2.87383 -0.56431,-4.31946 -0.12473,-1.42382 -0.26607,-2.84661 -0.34946,-4.27366 -0.0916,-1.44289 -0.18814,-2.88659 -0.17722,-4.33334 0.008,-1.51221 0.008,-3.02492 0.0602,-4.53642 0.069,-1.5104 0.14208,-3.02062 0.22795,-4.53017 0.0866,-1.51012 0.17828,-3.01997 0.28602,-4.52874 0.10863,-1.50974 0.22369,-3.01904 0.35885,-4.52665 0.13593,-1.50426 0.27943,-3.00792 0.45052,-4.50865 0.16844,-1.45021 0.35159,-2.89877 0.56561,-4.34304 0.21403,-1.42905 0.4411,-2.8563 0.70927,-4.27635 0.26799,-1.40794 0.55404,-2.81243 0.87927,-4.20841 0.31385,-1.37029 0.6046,-2.74602 0.95134,-4.10857 0.3222,-1.25152 0.65923,-2.49933 1.01707,-3.74117 0.32742,-1.15041 0.64668,-2.3039 1.04625,-3.432105 0.38067,-1.08905 0.75887,-2.17919 1.15889,-3.26126 0.375185,-0.98487 0.744885,-1.97179 1.092617,-2.96677 0.27445,-0.78541 0.52147,-1.57907 0.76601,-2.37424 0.16988,-0.5545 0.34031,-1.10968 0.49081,-1.66957 0.0624,-0.37384 0.0385,-0.75985 0.0862,-0.69302 3.166254,4.4322 1.68454,5.39397 2.9111,3.97564 -0.12859,0.07 -0.21975,0.19507 -0.3142,0.30695 -0.45205,0.50762 -0.88696,1.02965 -1.33419,1.54148 -0.81769,0.92587 -1.60425,1.87939 -2.37504,2.84449 -0.954072,1.24451 -1.901067,2.49832 -2.727977,3.832485 -0.80526,1.32498 -1.5946,2.66079 -2.27335,4.0563 -0.66195,1.36285 -1.28246,2.74518 -1.8191,4.16282 -0.56152,1.44337 -1.09167,2.89982 -1.54596,4.38089 -0.45677,1.53065 -0.90076,3.06573 -1.27756,4.61837 -0.32734,1.43818 -0.61865,2.88343 -0.76188,4.35362 -0.14035,1.35065 -0.23213,2.70505 -0.23009,4.06388 -0.0209,1.2973 -0.0431,2.59459 -0.0701,3.89178 -0.0261,1.24128 -0.0539,2.48252 -0.0881,3.7236 -0.0317,1.13361 -0.0658,2.26717 -0.11084,3.40034 -0.0404,1.01371 -0.0836,2.02733 -0.14,3.0403 -0.0505,0.88852 -0.10205,1.77737 -0.18957,2.66317 -0.0841,0.73347 -0.2098,1.46202 -0.40175,2.17564 -0.14329,0.47397 -0.29123,0.98079 -0.74671,1.24454 -1.85554,0.75991 -2.97411,-3.37659 -3.920684,-5.07275 -0.425206,-0.98861 -0.716766,-2.02467 -0.993219,-3.06324 -0.406167,-1.51446 -0.829815,-3.02384 -1.258001,-4.53219 -0.411784,-1.53962 -0.824069,-3.07908 -1.242431,-4.61692 -0.413959,-1.5874 -0.865346,-3.16485 -1.258514,-4.7576 -0.388183,-1.60579 -0.772694,-3.21246 -1.167675,-4.81658 -0.41552,-1.66544 -0.797854,-3.33927 -1.25018,-4.99535 -0.453387,-1.64283 -0.904515,-3.28659 -1.390954,-4.91998 -0.476967,-1.5984 -0.967965,-3.19253 -1.438966,-4.79269 -0.491543,-1.65505 -0.973013,-3.31308 -1.480486,-4.96337 -0.492702,-1.646045 -1.0013,-3.287395 -1.520434,-4.925275 -0.513122,-1.6317 -1.00139,-3.27121 -1.536192,-4.89605 -0.52121,-1.62598 -1.015513,-3.26039 -1.543463,-4.88421 -0.518855,-1.60958 -1.04527,-3.21641 -1.589362,-4.81767 -0.472488,-1.40672 -0.950212,-2.81174 -1.43455,-4.21443 -0.445249,-1.2908 -0.874985,-2.58747 -1.365554,-3.86208 -0.446945,-1.16486 -0.914974,-2.32091 -1.425654,-3.45955 -0.454306,-1.05422 -0.90872,-2.10862 -1.416799,-3.13845 -0.410943,-0.87138 -0.833827,-1.73697 -1.270992,-2.59554 -0.329235,-0.65861 -0.676368,-1.30771 -1.032119,-1.95238 -1.925214,-3.42901 3.186134,5.1719 2.066235,3.03145 0.04037,-0.16596 0.199567,-0.38955 0.35497,-0.32162 0.168685,0.35089 0.211037,0.76244 0.38105,1.1149 0.334965,0.92172 0.709967,1.82808 1.099474,2.72801 0.672832,1.50544 1.337503,3.01441 1.986422,4.53035 0.829239,1.94994 1.652286,3.90239 2.418107,5.87838 0.82087,2.10147 1.628015,4.20855 2.38475,6.33411 0.794877,2.22932 1.549641,4.47278 2.26916,6.72757 0.725201,2.33768 1.427921,4.68258 2.023922,7.05716 0.594749,2.326065 1.176417,4.657025 1.617141,7.018225 0.390319,2.12669 0.732385,4.26253 0.928968,6.4171 0.196466,2.03519 0.343127,4.07648 0.406789,6.12038 0.03654,1.86564 0.04071,3.73185 -0.0046,5.59745 -0.06145,1.88575 -0.122735,3.77166 -0.21677,5.65613 -0.113708,1.96235 -0.270333,3.92193 -0.430819,5.88095 -0.170772,2.01903 -0.348975,4.03749 -0.553672,6.0534 -0.211632,2.04582 -0.434361,4.09055 -0.69469,6.13083 -0.269886,2.09542 -0.551503,4.18944 -0.87085,6.27798 -0.32894,2.12002 -0.683336,4.23623 -1.090657,6.34276 -0.408935,2.10467 -0.839235,4.20518 -1.267992,6.30588 -0.429345,1.99699 -0.877959,3.98982 -1.337543,5.98007 -0.437248,1.91109 -0.895707,3.81738 -1.414973,5.70811 -0.466722,1.76128 -0.949267,3.51858 -1.462439,5.26694 -0.46328,1.5398 -0.958739,3.0715 -1.572853,4.55892 -0.449919,1.0994 -0.917522,2.19489 -1.560412,3.19864 -0.338799,0.5359 -0.679627,1.07816 -1.126014,1.53297 0,0 -2.969244,-4.36911 -2.969244,-4.36911 z"
       inkscape:connector-curvature="0" />
    <path
       style="opacity:1;fill:url(#linearGradient2416);fill-opacity:1;stroke-width:0.26458332"
       id="path37"
       d="m 100.573,144.33571 c -0.12236,0.51452 -0.19882,1.03827 -0.27102,1.5617 -0.0834,0.71479 -0.16233,1.42848 -0.27098,2.13989 -0.128864,0.83285 -0.229444,1.6696 -0.322054,2.50713 -0.0729,0.92201 -0.0945,1.84511 -0.0828,2.76942 -0.0151,1.03839 0.0825,2.07072 0.22698,3.0976 0.153394,1.09364 0.379024,2.1755 0.615394,3.25371 0.26244,1.1421 0.59916,2.26447 0.9511,3.38162 0.39267,1.23644 0.77896,2.47527 1.22973,3.692 0.44693,1.22836 0.98313,2.41453 1.62111,3.55466 1.00452,1.64245 1.32352,2.15446 -2.16705,-3.3314 -0.10354,-0.16272 0.21912,0.31754 0.33456,0.47204 0.30736,0.41138 0.64747,0.78912 0.99864,1.16269 0.50641,0.53581 1.08251,0.98195 1.74839,1.297 0.46323,0.20806 0.92044,0.26057 1.40397,0.11401 0.4804,-0.21688 0.8163,-0.62683 1.12546,-1.03854 0.39726,-0.5561 0.68257,-1.17821 0.94651,-1.80539 0.31487,-0.76966 0.54996,-1.56787 0.76854,-2.36912 0.27462,-0.92002 0.39594,-1.86948 0.48667,-2.82185 0.10348,-1.0414 0.0922,-2.09004 0.0255,-3.13316 -0.0673,-1.06484 -0.22479,-2.12262 -0.43292,-3.16842 -0.25849,-1.09413 -0.5778,-2.17432 -0.93753,-3.23928 -0.3722,-1.09732 -0.78378,-2.18109 -1.18271,-3.269 -0.0663,-0.18769 -0.13269,-0.37537 -0.19903,-0.56306 0,0 3.43162,3.99408 3.43162,3.99408 v 0 c 0.0676,0.1867 0.13519,0.37341 0.20279,0.56012 0.40225,1.08933 0.80837,2.17795 1.16821,3.28219 0.34075,1.08174 0.6701,2.17053 0.88547,3.28534 0.18328,1.06336 0.33428,2.13365 0.37871,3.21307 0.0391,1.06239 0.0357,2.1273 -0.0881,3.18488 -0.11006,0.97312 -0.27228,1.93832 -0.55556,2.87794 -0.23373,0.81814 -0.48589,1.63266 -0.82451,2.41459 -0.29343,0.65847 -0.6129,1.30922 -1.05226,1.88497 -0.38668,0.48416 -0.81204,0.94107 -1.38215,1.20983 -0.57651,0.21136 -1.1393,0.27026 -1.73328,0.0692 -0.73637,-0.25863 -1.38579,-0.65641 -1.9437,-1.20822 -2.05455,-2.00071 -3.48083,-4.53765 -4.89696,-7.01487 -0.60626,-1.16385 -1.120254,-2.36915 -1.561694,-3.60531 -0.4324,-1.22676 -0.82353,-2.46773 -1.21175,-3.70907 -0.34203,-1.12794 -0.67401,-2.25953 -0.91807,-3.41358 -0.23123,-1.08694 -0.44136,-2.17965 -0.58113,-3.28255 -0.12128,-1.043 -0.19451,-2.08901 -0.17888,-3.13994 2.7e-4,-0.93784 0.0351,-1.87621 0.13092,-2.80955 0.0975,-0.84193 0.20545,-1.68255 0.33412,-2.52034 0.10094,-0.71261 0.1643,-1.42963 0.26841,-2.14184 0.0824,-0.53838 0.1717,-1.07684 0.31692,-1.60253 0,0 3.194354,4.20736 3.194354,4.20736 z"
       inkscape:connector-curvature="0" />
    <path
       style="opacity:1;fill:url(#linearGradient2408);fill-opacity:1;stroke-width:0.26458332"
       id="path39"
       d="m 128.86241,154.15158 c -0.4631,-0.0205 -0.91911,0.0465 -1.37037,0.14255 -0.53522,0.13901 -1.03091,0.38607 -1.48889,0.69159 -0.50331,0.38479 -0.95575,0.8301 -1.36651,1.31134 -0.45445,0.55597 -0.81762,1.17533 -1.10074,1.83352 -0.21853,0.53811 -0.27881,1.0952 -0.15932,1.66129 1.91257,3.37964 -3.48887,-4.97221 -2.08238,-3.15438 0.42872,0.47386 0.87873,0.92534 1.28239,1.42173 1.42882,2.04397 2.85172,4.12934 4.0321,6.33599 0.39371,0.73768 0.69612,1.51572 0.86614,2.33409 0.15571,0.84305 0.09,1.68848 -0.0773,2.52223 -0.17328,0.79175 -0.54681,1.50207 -0.99445,2.16916 -0.45496,0.67208 -1.07357,1.18649 -1.72517,1.65668 -0.63836,0.45217 -1.35545,0.76055 -2.08303,1.03574 -0.79676,0.30722 -1.63682,0.4573 -2.48117,0.55634 -0.89334,0.0886 -1.78442,0.0294 -2.66562,-0.12643 -0.55578,-0.13275 -0.28417,-0.0607 -0.81517,-0.21481 0,0 -2.47333,-4.65842 -2.47333,-4.65842 v 0 c 0.50258,0.16867 0.24689,0.0878 0.76729,0.24204 0.83132,0.18849 1.67349,0.26878 2.52633,0.20483 0.80423,-0.0744 1.60609,-0.20448 2.36581,-0.48911 0.68543,-0.25346 1.36376,-0.53371 1.96369,-0.95918 0.59928,-0.4357 1.16334,-0.91409 1.56432,-1.54743 0.39346,-0.62984 0.70691,-1.29992 0.82285,-2.04078 0.11076,-0.7972 0.11957,-1.59989 -0.0935,-2.38364 -0.23641,-0.78386 -0.55978,-1.53537 -0.96925,-2.2455 -0.19585,-0.34178 -0.39345,-0.68293 -0.59722,-1.02007 -0.0655,-0.10829 -0.26934,-0.42847 -0.20002,-0.32262 0.70853,1.08181 3.67367,5.63546 2.44907,3.75486 -0.36935,-0.51797 -0.77768,-1.0062 -1.2531,-1.43123 -1.50968,-1.59213 -3.09305,-3.51817 -3.47464,-5.72586 -0.0103,-0.63677 0.11145,-1.25211 0.38567,-1.83097 0.33221,-0.68575 0.72734,-1.34011 1.22341,-1.92143 0.4496,-0.50858 0.9375,-0.98515 1.48274,-1.3915 0.51089,-0.34001 1.05918,-0.61788 1.64929,-0.79381 0.48169,-0.11966 0.97406,-0.21453 1.47258,-0.20569 0,0 2.61746,4.58888 2.61746,4.58888 z"
       inkscape:connector-curvature="0" />
    <path
       style="opacity:1;fill:url(#linearGradient2400);fill-opacity:1;stroke-width:0.26458332"
       id="path41"
       d="m 136.21107,155.63278 c -5.3e-4,0.52678 -0.001,1.05355 -0.001,1.58033 -5.3e-4,0.72426 -8e-4,1.44853 -0.001,2.1728 0.0149,0.89006 -0.006,1.77833 -0.0867,2.66488 -0.0869,1.02395 -0.20177,2.04412 -0.36147,3.05927 -0.17299,1.14099 -0.42488,2.26865 -0.70623,3.38732 -0.1907,0.79015 -0.39947,1.57547 -0.60723,2.36124 0,0 -3.18473,-4.19233 -3.18473,-4.19233 v 0 c 0.20629,-0.78391 0.40817,-1.56887 0.59919,-2.35667 0.26529,-1.11055 0.5079,-2.22761 0.66654,-3.3591 0.14229,-1.00932 0.25146,-2.02241 0.32996,-3.03878 0.0553,-0.88 0.0624,-1.76053 0.0529,-2.64212 -2.7e-4,-0.72529 -8e-4,-1.45058 -0.001,-2.17587 -2.7e-4,-0.52797 -8e-4,-1.05593 -0.001,-1.5839 0,0 3.30309,4.12293 3.30309,4.12293 z"
       inkscape:connector-curvature="0" />
    <path
       style="opacity:1;fill:url(#linearGradient2392);fill-opacity:1;stroke-width:0.26458332"
       id="path43"
       d="m 154.59507,157.94073 c -0.49141,0.0547 -0.97549,0.1589 -1.45671,0.26998 -0.68084,0.17403 -1.34362,0.41406 -1.99775,0.66922 -0.78988,0.29221 -1.53548,0.68466 -2.25707,1.11567 -0.78398,0.47542 -1.45789,1.09388 -2.08565,1.75602 -0.51953,0.55559 -0.94394,1.18097 -1.23021,1.88518 -0.1852,0.49079 -0.17831,0.97835 -0.0186,1.47053 1.67077,2.76845 -3.94256,-5.38678 -2.01376,-3.16497 0.41536,0.43877 0.92962,0.75347 1.47179,1.00909 0.64031,0.28733 1.32796,0.43593 2.01169,0.57761 0.82168,0.14738 1.65606,0.20729 2.48737,0.27277 0.97205,0.0743 1.94536,0.13008 2.9188,0.18229 1.08226,0.0571 2.1651,0.10213 3.24804,0.1442 0.96953,0.0372 1.93928,0.068 2.90907,0.0974 0,0 2.59538,4.58182 2.59538,4.58182 v 0 c -0.97081,-0.0284 -1.9416,-0.0581 -2.91217,-0.0939 -1.08475,-0.0405 -2.16942,-0.0839 -3.25356,-0.13863 -0.97657,-0.0501 -1.95302,-0.10365 -2.92839,-0.17385 -0.84844,-0.0626 -1.69767,-0.12563 -2.54108,-0.23958 -0.71113,-0.13475 -1.42784,-0.27077 -2.10807,-0.52406 -0.59153,-0.22989 -1.15825,-0.50776 -1.64863,-0.9186 -1.70389,-1.46395 -3.06411,-3.49371 -3.61867,-5.66754 -0.053,-0.57794 0.0305,-1.13741 0.27669,-1.66804 0.35357,-0.73235 0.81818,-1.39676 1.38197,-1.98489 0.66651,-0.68954 1.38002,-1.33376 2.2029,-1.83443 0.74485,-0.44708 1.51292,-0.85913 2.32828,-1.1642 0.67506,-0.26986 1.36126,-0.51635 2.06134,-0.71323 0.49555,-0.11753 0.99294,-0.23768 1.49895,-0.2995 0,0 2.67801,4.55372 2.67801,4.55372 z"
       inkscape:connector-curvature="0" />
  </g>
</svg>
