<?xml version="1.0" encoding="UTF-8" standalone="no"?>
<!-- Created with Inkscape (http://www.inkscape.org/) -->

<svg
   xmlns:dc="http://purl.org/dc/elements/1.1/"
   xmlns:cc="http://creativecommons.org/ns#"
   xmlns:rdf="http://www.w3.org/1999/02/22-rdf-syntax-ns#"
   xmlns:svg="http://www.w3.org/2000/svg"
   xmlns="http://www.w3.org/2000/svg"
   xmlns:xlink="http://www.w3.org/1999/xlink"
   xmlns:sodipodi="http://sodipodi.sourceforge.net/DTD/sodipodi-0.dtd"
   xmlns:inkscape="http://www.inkscape.org/namespaces/inkscape"
   width="210.03116mm"
   height="116.20378mm"
   viewBox="0 0 210.03116 116.20378"
   version="1.1"
   id="svg319"
   inkscape:version="0.92.3 (2405546, 2018-03-11)"
   sodipodi:docname="logo turismo2.svg">
  <title
     id="title343">martin m</title>
  <defs
     id="defs313">
    <linearGradient
       inkscape:collect="always"
       xlink:href="#linearGradient293"
       id="linearGradient295"
       x1="174.625"
       y1="80.041664"
       x2="201.7142"
       y2="74.867821"
       gradientUnits="userSpaceOnUse"
       gradientTransform="matrix(1.1882888,0,0,1.2227203,-30.71049,4.4666118)" />
    <linearGradient
       inkscape:collect="always"
       id="linearGradient293">
      <stop
         style="stop-color:#00aad4;stop-opacity:1;"
         offset="0"
         id="stop289" />
      <stop
         style="stop-color:#00aad4;stop-opacity:0;"
         offset="1"
         id="stop291" />
    </linearGradient>
  </defs>
  <sodipodi:namedview
     id="base"
     pagecolor="#ffffff"
     bordercolor="#666666"
     borderopacity="1.0"
     inkscape:pageopacity="0.0"
     inkscape:pageshadow="2"
     inkscape:zoom="0.35"
     inkscape:cx="399.99999"
     inkscape:cy="148.16928"
     inkscape:document-units="mm"
     inkscape:current-layer="layer1"
     showgrid="false"
     inkscape:lockguides="false"
     inkscape:snap-page="true"
     showguides="true"
     inkscape:window-width="504"
     inkscape:window-height="570"
     inkscape:window-x="719"
     inkscape:window-y="57"
     inkscape:window-maximized="0"
     fit-margin-top="0"
     fit-margin-left="0"
     fit-margin-right="0"
     fit-margin-bottom="0" />
  <metadata
     id="metadata316">
    <rdf:RDF>
      <cc:Work
         rdf:about="">
        <dc:format>image/svg+xml</dc:format>
        <dc:type
           rdf:resource="http://purl.org/dc/dcmitype/StillImage" />
        <dc:title>martin m</dc:title>
      </cc:Work>
    </rdf:RDF>
  </metadata>
  <g
     inkscape:label="Capa 1"
     inkscape:groupmode="layer"
     id="layer1"
     transform="translate(-2.3765776e-6,-71.832676)">
    <path
       style="opacity:1;fill:#ff0000;fill-opacity:1;stroke-width:0.31892386"
       id="path261"
       d="M 2.3765776e-6,151.84845 C 0.17726417,151.22204 0.42611325,150.62246 0.61456635,149.99986 c 0.31386511,-0.94788 0.65652485,-1.88534 1.01639455,-2.81573 0.4466076,-1.13355 0.9525858,-2.24017 1.4412577,-3.35477 0.5708397,-1.18396 1.1455616,-2.36696 1.7534188,-3.53139 0.6306807,-1.21429 1.3021103,-2.40584 1.9568633,-3.60673 0.691438,-1.28054 1.4368053,-2.53201 2.1934121,-3.77314 0.8254068,-1.30872 1.6557192,-2.61412 2.5105262,-3.90279 0.950353,-1.43884 1.960126,-2.83296 3.00623,-4.19904 1.089306,-1.4657 2.271418,-2.85432 3.426409,-4.26472 1.164832,-1.41831 2.383869,-2.78695 3.6142,-4.14487 1.284825,-1.38789 2.597115,-2.74814 3.927949,-4.08921 1.32905,-1.33977 2.703037,-2.62932 4.085256,-3.91033 1.37789,-1.28907 2.823515,-2.49474 4.289624,-3.67477 1.479545,-1.21126 3.011317,-2.35289 4.567671,-3.45681 1.651428,-1.16904 3.369037,-2.232343 5.111469,-3.250009 1.725567,-1.003956 3.521582,-1.869785 5.329859,-2.702042 1.835108,-0.831426 3.716366,-1.54552 5.613631,-2.210065 1.872502,-0.670868 3.79851,-1.15686 5.735465,-1.581986 1.767285,-0.391465 3.569597,-0.554347 5.370529,-0.668676 1.670568,-0.09771 3.3438,-0.03344 5.011665,0.07991 1.59759,0.110876 3.16883,0.416979 4.707109,0.865051 1.452038,0.447139 2.829647,1.096857 4.163052,1.830636 1.250259,0.697967 2.389353,1.573082 3.475787,2.511917 1.030365,0.905372 1.952879,1.924683 2.767819,3.036412 2.142681,4.058472 6.428937,8.288342 7.640612,13.255322 0.185208,1.11477 0.112531,2.23866 -0.06464,3.34721 -0.149083,1.06842 -0.425244,2.10592 -0.786198,3.11723 -0.396093,1.04296 -0.944962,2.01267 -1.514199,2.96343 -0.545807,0.98606 -1.219578,1.88744 -1.903521,2.77456 -0.747907,0.93044 -1.565266,1.79862 -2.399656,2.64649 -0.90642,0.9058 -1.849661,1.76892 -2.821662,2.59921 -1.011391,0.85964 -2.061473,1.665 -3.131368,2.44514 -1.149173,0.80456 -2.312118,1.5894 -3.491321,2.34666 -1.243386,0.78893 -2.480117,1.58865 -3.745167,2.34053 -1.262995,0.75431 -2.497488,1.55725 -3.750472,2.32868 -1.322539,0.82071 -2.654916,1.62389 -3.977361,2.44479 -1.380524,0.83036 -2.751879,1.67689 -4.137544,2.49814 -1.360447,0.82757 -2.724421,1.64894 -4.082685,2.48034 -1.436642,0.87765 -2.882363,1.73929 -4.327893,2.60129 -1.473178,0.86985 -2.938015,1.75466 -4.405528,2.63462 -1.494391,0.89933 -2.974008,1.82408 -4.456345,2.74421 -1.495987,0.94987 -2.978456,1.92205 -4.452247,2.90794 -1.447426,0.99784 -2.878977,2.0198 -4.30479,3.05001 -1.416172,1.0355 -2.796287,2.12063 -4.163985,3.22251 -1.393971,1.08487 -2.624076,2.35513 -3.769572,3.70755 -1.18186,1.39139 -2.129712,2.95629 -2.957639,4.58937 -0.721246,1.46652 -1.153878,3.05312 -1.456571,4.65994 -0.243168,1.33418 -0.258796,2.68656 -0.135535,4.03328 0.157927,1.08821 0.571783,2.10689 1.121985,3.0432 2.362762,3.52549 0.244881,0.374 -5.721977,-9.13907 -0.08112,-0.12936 0.161515,0.25934 0.248286,0.38477 0.242778,0.35091 0.51005,0.66268 0.80874,0.96286 0.672448,0.60191 1.524648,0.8812 2.370365,1.11148 0.95208,0.24763 1.93162,0.33003 2.910351,0.34562 1.106185,-0.0203 2.204496,-0.17205 3.290167,-0.38223 1.155794,-0.23785 2.277387,-0.60172 3.373887,-1.0417 1.18454,-0.48323 2.305239,-1.10673 3.386129,-1.79696 1.171818,-0.71459 2.2372,-1.58869 3.305994,-2.45219 1.104056,-0.92487 2.205199,-1.85326 3.269256,-2.82678 1.116701,-0.9929 2.200282,-2.02388 3.29582,-3.04113 1.123167,-1.07656 2.25859,-2.13898 3.410803,-3.18256 1.16304,-1.09008 2.333415,-2.17141 3.509556,-3.24648 1.21176,-1.13716 2.453831,-2.23935 3.672884,-3.36825 1.268601,-1.16657 2.502421,-2.37181 3.747913,-3.56416 1.276404,-1.22513 2.494527,-2.51132 3.732653,-3.7766 1.259032,-1.28261 2.454801,-2.62804 3.684071,-3.9403 1.236223,-1.33367 2.41862,-2.71853 3.640633,-4.06583 1.191427,-1.3452 2.375535,-2.69751 3.551856,-4.05675 1.179549,-1.37853 2.384914,-2.73339 3.564398,-4.1119 1.196957,-1.37424 2.384647,-2.75694 3.572989,-4.13909 1.191962,-1.38728 2.368399,-2.78838 3.570248,-4.16669 1.176327,-1.36128 2.314715,-2.75637 3.477447,-4.1298 1.158094,-1.34667 2.287418,-2.71929 3.409593,-4.09767 1.121195,-1.37373 2.264271,-2.72843 3.379147,-4.10766 1.154291,-1.38254 2.289372,-2.78179 3.435214,-4.17171 1.205506,-1.47185 2.375446,-2.97382 3.571406,-4.45375 1.17333,-1.46542 2.32963,-2.94505 3.51009,-4.404386 1.16888,-1.496459 2.36984,-2.965343 3.5695,-4.435536 1.19543,-1.462845 2.37296,-2.941015 3.55687,-4.413751 1.22334,-1.503474 2.43965,-3.012982 3.67687,-4.504405 1.23242,-1.531755 2.63923,-2.889876 4.11939,-4.162232 1.54534,-1.280663 3.2257,-2.372048 4.92145,-3.426183 1.53599,-0.965665 3.14612,-1.790539 4.80832,-2.497372 1.3055,-0.560114 2.6809,-0.872329 4.08593,-0.991281 1.13304,-0.07597 2.25424,0.07826 3.34952,0.365969 0.88148,0.239589 1.67148,0.683566 2.3772,1.268711 3.09387,3.409147 6.27885,7.504896 7.30322,12.16278 0.16034,0.924465 0.21782,1.857262 0.16579,2.793815 -0.0438,0.986603 -0.14134,1.971455 -0.28748,2.94753 -0.1464,1.114789 -0.44677,2.203249 -0.76752,3.276457 -0.38283,1.205177 -0.81793,2.391167 -1.24392,3.580544 -0.46624,1.29762 -1.00579,2.56484 -1.5096,3.84695 -0.59991,1.42325 -1.16621,2.86003 -1.69283,4.3136 -0.53326,1.45737 -0.91886,2.96576 -1.2264,4.48875 -0.31402,1.39172 -0.39683,2.81303 -0.36016,4.23631 0.0452,1.28636 0.31569,2.53829 0.69939,3.75795 0.0774,0.18461 0.1447,0.37401 0.2321,0.55382 0.0926,0.1904 0.46042,0.81316 0.57691,0.9962 0.0987,0.15508 0.40567,0.61272 0.30801,0.45696 -5.80277,-9.25554 -8.07386,-12.5384 -5.6506,-9.0217 0.59583,0.82171 1.31482,1.53368 2.10409,2.15498 0.78696,0.59532 1.71674,0.88385 2.65465,1.10925 0.97905,0.21104 1.97379,0.3185 2.97269,0.34576 1.03468,0.007 2.05351,-0.15654 3.05755,-0.39833 1.16586,-0.32267 2.29433,-0.77024 3.41345,-1.23232 0.8246,-0.36215 0.41193,-0.17552 1.23788,-0.56018 0,0 6.18356,10.12192 6.18356,10.12192 v 0 c -0.85308,0.40412 -0.42674,0.20772 -1.27892,0.58944 -1.16522,0.49141 -2.34071,0.96153 -3.54925,1.32911 -1.08181,0.29147 -2.17642,0.50573 -3.29748,0.54777 -1.06273,0.0313 -2.1224,-0.0479 -3.1713,-0.23139 -1.05089,-0.17447 -2.09025,-0.41646 -3.05584,-0.89351 -0.91106,-0.53287 -1.72596,-1.19728 -2.43462,-1.99575 -3.26994,-3.75219 -6.27214,-8.16535 -7.81503,-13.00303 -0.29488,-1.29986 -0.48263,-2.62281 -0.44937,-3.96186 0.0478,-1.48085 0.21418,-2.95071 0.56164,-4.3916 0.36342,-1.55587 0.78942,-3.09664 1.3592,-4.587592 0.54374,-1.457397 1.12815,-2.897336 1.71278,-4.337754 0.50797,-1.268604 1.01961,-2.535964 1.4745,-3.826124 0.4179,-1.168109 0.83308,-2.338731 1.17339,-3.533796 0.27259,-1.043023 0.52356,-2.092775 0.62367,-3.171 0.0967,-0.949334 0.18865,-1.900768 0.16972,-2.856863 -0.0479,-0.869865 -0.14843,-1.744397 -0.43502,-2.569403 -0.14296,-0.377512 -0.3054,-0.719593 -0.51809,-1.061661 -0.0702,-0.112881 -0.29089,-0.444676 -0.21963,-0.332505 6.20319,9.763507 7.86658,12.909664 5.90017,9.216255 -0.46135,-0.701878 -1.07366,-1.22728 -1.84031,-1.554001 -0.96126,-0.370251 -1.96037,-0.58981 -2.99232,-0.58059 -1.2931,0.03099 -2.55949,0.272038 -3.76389,0.77315 -1.6153,0.662758 -3.17709,1.450247 -4.66245,2.383817 -1.64539,1.020286 -3.27742,2.07551 -4.76983,3.325593 -1.42557,1.238292 -2.77274,2.564662 -3.95944,4.050478 -1.23085,1.489629 -2.44557,2.993274 -3.66132,4.495956 -1.18436,1.47655 -2.36745,2.95427 -3.56536,4.41922 -1.20038,1.46669 -2.38839,2.94361 -3.56302,4.43226 -1.17713,1.46188 -2.33389,2.94093 -3.5099,4.40377 -1.19532,1.48569 -2.37323,2.98616 -3.5798,4.46228 -1.14187,1.39002 -2.27829,2.78477 -3.42725,4.16859 -1.1202,1.37644 -2.260042,2.73572 -3.381905,4.11071 -1.130361,1.37967 -2.263454,2.75717 -3.425755,4.10861 -1.16337,1.38018 -2.310379,2.77505 -3.492392,4.13852 -1.197546,1.37881 -2.373977,2.77665 -3.564363,4.16197 -1.187029,1.38288 -2.378294,2.76183 -3.573151,4.13754 -1.184787,1.37707 -2.384455,2.74054 -3.567727,4.11902 -1.1851,1.36133 -2.370756,2.72239 -3.573152,4.06755 -1.22189,1.35612 -2.409502,2.74492 -3.655786,4.07768 -1.231576,1.32203 -2.437198,2.66998 -3.704805,3.95611 -1.244744,1.27699 -2.476474,2.56776 -3.763499,3.80029 -1.24944,1.19822 -2.490122,2.40617 -3.762671,3.5786 -1.221314,1.12957 -2.464947,2.2333 -3.677578,3.37281 -1.176066,1.07791 -2.343819,2.165 -3.511757,3.25218 -1.146465,1.04257 -2.276348,2.10375 -3.397516,3.17504 -1.095441,1.02396 -2.187734,2.05163 -3.30511,3.05037 -1.084717,0.98472 -2.201058,1.93115 -3.325371,2.86752 -1.102081,0.89078 -2.20484,1.78679 -3.410856,2.5273 -1.138445,0.72823 -2.315931,1.39141 -3.558634,1.91419 -1.15391,0.4795 -2.332544,0.88202 -3.550039,1.15594 -1.14605,0.25263 -2.30653,0.42228 -3.476959,0.49808 -1.055452,0.0393 -2.111073,-0.008 -3.152833,-0.20108 -0.958798,-0.20194 -1.913916,-0.42966 -2.79707,-0.87978 -3.880028,-2.33763 -6.285601,-8.76317 -8.128604,-11.96234 -0.423081,-1.07317 -0.737174,-2.18085 -0.752623,-3.3498 -0.02537,-1.41979 0.07417,-2.83737 0.389483,-4.22413 0.395372,-1.67788 0.914078,-3.32667 1.722477,-4.84785 0.905045,-1.68626 1.929535,-3.30282 3.175285,-4.74755 1.206688,-1.39262 2.496083,-2.7035 3.945646,-3.83128 1.383258,-1.11497 2.780268,-2.21132 4.213923,-3.25723 1.436588,-1.03909 2.880245,-2.06797 4.339834,-3.07262 1.48384,-0.99413 2.978013,-1.97186 4.484343,-2.92953 1.48581,-0.92626 2.972042,-1.85175 4.470404,-2.75641 1.467579,-0.88166 2.933594,-1.76624 4.407543,-2.63654 1.440779,-0.86103 2.882694,-1.71999 4.314656,-2.59651 1.362019,-0.83682 2.730788,-1.66185 4.09693,-2.49147 1.379474,-0.81579 2.743426,-1.65899 4.117173,-2.48494 1.323651,-0.82173 2.655468,-1.62891 3.978475,-2.45171 1.25864,-0.77384 2.497747,-1.58097 3.765615,-2.33903 1.254203,-0.74349 2.47931,-1.53625 3.71036,-2.31932 1.159588,-0.74495 2.301602,-1.5195 3.431161,-2.31166 1.044005,-0.76418 2.068828,-1.55301 3.055002,-2.39547 0.942283,-0.81245 1.8578,-1.65579 2.73504,-2.54247 0.794393,-0.82146 1.577019,-1.65837 2.27788,-2.56701 0.644443,-0.86163 1.270515,-1.7382 1.78579,-2.69008 0.509456,-0.90026 1.005342,-1.81445 1.311412,-2.81313 0.287172,-0.9677 0.495605,-1.95841 0.594487,-2.96641 0.06782,-1.02344 0.03898,-2.05423 -0.310692,-3.02859 -1.512777,-4.163533 -6.794312,-10.275183 4.659524,6.77015 -0.709483,-1.16135 -1.52675,-2.23321 -2.513992,-3.1625 -1.010832,-0.97027 -2.074933,-1.88317 -3.258906,-2.6249 -1.254487,-0.77353 -2.558033,-1.45701 -3.94271,-1.95226 -1.454833,-0.50442 -2.946988,-0.85965 -4.480465,-0.99508 -1.622026,-0.1458 -3.251783,-0.22174 -4.880017,-0.16349 -1.749582,0.0935 -3.503335,0.21424 -5.224182,0.57238 -1.896768,0.40093 -3.787091,0.84951 -5.619586,1.50215 -1.865725,0.64687 -3.715844,1.34259 -5.520687,2.15433 -1.776627,0.81199 -3.541317,1.65701 -5.236058,2.6399 -1.713987,0.99759 -3.403987,2.04001 -5.024103,3.19367 -1.53543,1.09337 -3.046544,2.22387 -4.50756,3.42096 -1.444047,1.16445 -2.866628,2.35572 -4.222829,3.62844 -1.368961,1.27123 -2.729008,2.55194 -4.045464,3.88108 -1.316238,1.3311 -2.61425,2.68119 -3.882786,4.0606 -1.215275,1.34716 -2.416648,2.70742 -3.567487,4.11372 -1.149196,1.39696 -2.311365,2.7841 -3.390406,4.24004 -1.022415,1.35355 -2.005375,2.73758 -2.936877,4.15927 -0.839694,1.28187 -1.663828,2.57476 -2.469344,3.87964 -0.737815,1.23419 -1.47558,2.46996 -2.148116,3.74346 -0.647359,1.19585 -1.32103,2.37689 -1.933305,3.59245 -0.583117,1.15382 -1.162568,2.31071 -1.6935919,3.49107 -0.483644,1.0969 -0.9656972,2.19529 -1.3859637,3.32003 -0.3378578,0.92436 -0.6695294,1.85106 -0.9632816,2.79147 -0.2111233,0.61755 -0.4141793,1.23705 -0.6071693,1.86086 0,0 -6.9929454999994,-9.59875 -6.9929461234224,-9.59875 z"
       inkscape:connector-curvature="0" />
    <text
       xml:space="preserve"
       style="font-style:normal;font-variant:normal;font-weight:normal;font-stretch:normal;font-size:81.42194366px;line-height:1.25;font-family:Chiller;-inkscape-font-specification:Chiller;letter-spacing:0px;word-spacing:0px;fill:#000000;fill-opacity:1;stroke:none;stroke-width:2.03554869"
       x="57.487789"
       y="159.57228"
       id="text277"
       transform="scale(0.88668409,1.1277974)"><tspan
         sodipodi:role="line"
         id="tspan275"
         x="57.487789"
         y="159.57228"
         style="font-style:normal;font-variant:normal;font-weight:normal;font-stretch:normal;font-family:Chiller;-inkscape-font-specification:Chiller;stroke-width:2.03554869">JWL</tspan></text>
    <path
       style="opacity:1;fill:url(#linearGradient295);fill-opacity:1;stroke-width:0.31892386"
       id="path287"
       sodipodi:type="arc"
       sodipodi:cx="178.58931"
       sodipodi:cy="104.32343"
       sodipodi:rx="31.441845"
       sodipodi:ry="32.490757"
       sodipodi:start="6.238662"
       sodipodi:end="6.0244053"
       sodipodi:open="true"
       d="m 210,102.87731 a 31.441845,32.490757 0 0 1 -28.33158,33.78071 31.441845,32.490757 0 0 1 -34.16009,-27.42617 31.441845,32.490757 0 0 1 24.67381,-36.717421 31.441845,32.490757 0 0 1 36.80209,23.494575" />
  </g>
</svg>
